<?xml version="1.0" encoding="UTF-8" standalone="no"?>
<!DOCTYPE svg PUBLIC "-//W3C//DTD SVG 1.1//EN"
 "http://www.w3.org/Graphics/SVG/1.1/DTD/svg11.dtd">
<!-- Generated by graphviz version 2.43.0 (0)
 -->
<!-- Title: edit_atlas::support::LoggingInitializationFailure Pages: 1 -->
<svg width="162pt" height="171pt"
 viewBox="0.00 0.00 162.00 171.00" xmlns="http://www.w3.org/2000/svg" xmlns:xlink="http://www.w3.org/1999/xlink">
<g id="graph0" class="graph" transform="scale(1 1) rotate(0) translate(4 167)">
<title>edit_atlas::support::LoggingInitializationFailure</title>
<!-- Node1 -->
<g id="Node000001" class="node">
<title>Node1</title>
<g id="a_Node000001"><a xlink:title="Describes a recoverable failure to initialize persistent logging.">
<polygon fill="#999999" stroke="#666666" points="154,-30 0,-30 0,0 154,0 154,-30"/>
<text text-anchor="start" x="8" y="-18" font-family="Helvetica,sans-Serif" font-size="10.00">edit_atlas::support</text>
<text text-anchor="middle" x="77" y="-7" font-family="Helvetica,sans-Serif" font-size="10.00">::LoggingInitializationFailure</text>
</a>
</g>
</g>
<!-- Node2 -->
<g id="Node000002" class="node">
<title>Node2</title>
<g id="a_Node000002"><a xlink:title=" ">
<polygon fill="white" stroke="#666666" points="109.5,-96 44.5,-96 44.5,-77 109.5,-77 109.5,-96"/>
<text text-anchor="middle" x="77" y="-84" font-family="Helvetica,sans-Serif" font-size="10.00">std::string</text>
</a>
</g>
</g>
<!-- Node2&#45;&gt;Node1 -->
<g id="edge1_Node000001_Node000002" class="edge">
<title>Node2&#45;&gt;Node1</title>
<g id="a_edge1_Node000001_Node000002"><a xlink:title=" ">
<path fill="none" stroke="#9a32cd" stroke-dasharray="5,2" d="M77,-66.71C77,-55.19 77,-40.68 77,-30.14"/>
<polygon fill="#9a32cd" stroke="#9a32cd" points="73.5,-66.98 77,-76.98 80.5,-66.98 73.5,-66.98"/>
</a>
</g>
<text text-anchor="middle" x="101" y="-51" font-family="Helvetica,sans-Serif" font-size="10.00" fill="grey"> message</text>
</g>
<!-- Node3 -->
<g id="Node000003" class="node">
<title>Node3</title>
<g id="a_Node000003"><a xlink:title=" ">
<polygon fill="white" stroke="#666666" points="129,-163 25,-163 25,-133 129,-133 129,-163"/>
<text text-anchor="start" x="33" y="-151" font-family="Helvetica,sans-Serif" font-size="10.00">std::basic_string&lt;</text>
<text text-anchor="middle" x="77" y="-140" font-family="Helvetica,sans-Serif" font-size="10.00"> Char &gt;</text>
</a>
</g>
</g>
<!-- Node3&#45;&gt;Node2 -->
<g id="edge2_Node000002_Node000003" class="edge">
<title>Node3&#45;&gt;Node2</title>
<g id="a_edge2_Node000002_Node000003"><a xlink:title=" ">
<path fill="none" stroke="#63b8ff" d="M77,-122.79C77,-113.36 77,-103.15 77,-96.16"/>
<polygon fill="#63b8ff" stroke="#63b8ff" points="73.5,-122.9 77,-132.9 80.5,-122.9 73.5,-122.9"/>
</a>
</g>
</g>
</g>
</svg>
