<?xml version="1.0" encoding="UTF-8" standalone="no"?>
<!DOCTYPE svg PUBLIC "-//W3C//DTD SVG 1.1//EN"
 "http://www.w3.org/Graphics/SVG/1.1/DTD/svg11.dtd">
<!-- Generated by graphviz version 2.43.0 (0)
 -->
<!-- Title: edit_atlas::services::TimelineEventFrame Pages: 1 -->
<svg width="281pt" height="258pt"
 viewBox="0.00 0.00 280.50 258.00" xmlns="http://www.w3.org/2000/svg" xmlns:xlink="http://www.w3.org/1999/xlink">
<g id="graph0" class="graph" transform="scale(1 1) rotate(0) translate(4 254)">
<title>edit_atlas::services::TimelineEventFrame</title>
<!-- Node1 -->
<g id="Node000001" class="node">
<title>Node1</title>
<g id="a_Node000001"><a xlink:title="Associates one timeline event with its extracted initial frame.">
<polygon fill="#999999" stroke="#666666" points="185,-30 61,-30 61,0 185,0 185,-30"/>
<text text-anchor="start" x="69" y="-18" font-family="Helvetica,sans-Serif" font-size="10.00">edit_atlas::services</text>
<text text-anchor="middle" x="123" y="-7" font-family="Helvetica,sans-Serif" font-size="10.00">::TimelineEventFrame</text>
</a>
</g>
</g>
<!-- Node2 -->
<g id="Node000002" class="node">
<title>Node2</title>
<g id="a_Node000002"><a xlink:title=" ">
<polygon fill="white" stroke="#666666" points="90.5,-101.5 25.5,-101.5 25.5,-82.5 90.5,-82.5 90.5,-101.5"/>
<text text-anchor="middle" x="58" y="-89.5" font-family="Helvetica,sans-Serif" font-size="10.00">std::string</text>
</a>
</g>
</g>
<!-- Node2&#45;&gt;Node1 -->
<g id="edge1_Node000001_Node000002" class="edge">
<title>Node2&#45;&gt;Node1</title>
<g id="a_edge1_Node000001_Node000002"><a xlink:title=" ">
<path fill="none" stroke="#9a32cd" stroke-dasharray="5,2" d="M65.47,-73.05C69.38,-64.89 74.67,-55.43 81,-48 86.71,-41.3 94.04,-35.13 100.98,-30.02"/>
<polygon fill="#9a32cd" stroke="#9a32cd" points="62.16,-71.87 61.29,-82.43 68.56,-74.72 62.16,-71.87"/>
</a>
</g>
<text text-anchor="middle" x="121" y="-51" font-family="Helvetica,sans-Serif" font-size="10.00" fill="grey"> event_identifier</text>
</g>
<!-- Node3 -->
<g id="Node000003" class="node">
<title>Node3</title>
<g id="a_Node000003"><a xlink:title=" ">
<polygon fill="white" stroke="#666666" points="104,-184 0,-184 0,-154 104,-154 104,-184"/>
<text text-anchor="start" x="8" y="-172" font-family="Helvetica,sans-Serif" font-size="10.00">std::basic_string&lt;</text>
<text text-anchor="middle" x="52" y="-161" font-family="Helvetica,sans-Serif" font-size="10.00"> Char &gt;</text>
</a>
</g>
</g>
<!-- Node3&#45;&gt;Node2 -->
<g id="edge2_Node000002_Node000003" class="edge">
<title>Node3&#45;&gt;Node2</title>
<g id="a_edge2_Node000002_Node000003"><a xlink:title=" ">
<path fill="none" stroke="#63b8ff" d="M53.95,-143.68C55.09,-129.36 56.47,-112.11 57.29,-101.87"/>
<polygon fill="#63b8ff" stroke="#63b8ff" points="50.44,-143.65 53.13,-153.89 57.41,-144.2 50.44,-143.65"/>
</a>
</g>
</g>
<!-- Node4 -->
<g id="Node000004" class="node">
<title>Node4</title>
<g id="a_Node000004"><a xlink:title=" ">
<polygon fill="white" stroke="#666666" points="272.5,-107 111.5,-107 111.5,-77 272.5,-77 272.5,-107"/>
<text text-anchor="start" x="119.5" y="-95" font-family="Helvetica,sans-Serif" font-size="10.00">std::shared_ptr&lt; const</text>
<text text-anchor="middle" x="192" y="-84" font-family="Helvetica,sans-Serif" font-size="10.00"> edit_atlas::core::RgbImage &gt;</text>
</a>
</g>
</g>
<!-- Node4&#45;&gt;Node1 -->
<g id="edge3_Node000001_Node000004" class="edge">
<title>Node4&#45;&gt;Node1</title>
<g id="a_edge3_Node000001_Node000004"><a xlink:title=" ">
<path fill="none" stroke="#9a32cd" stroke-dasharray="5,2" d="M177.35,-68.49C172.48,-61.64 166.81,-54.26 161,-48 155.14,-41.68 148.05,-35.41 141.6,-30.12"/>
<polygon fill="#9a32cd" stroke="#9a32cd" points="174.49,-70.52 183.04,-76.78 180.26,-66.55 174.49,-70.52"/>
</a>
</g>
<text text-anchor="middle" x="186" y="-51" font-family="Helvetica,sans-Serif" font-size="10.00" fill="grey"> image</text>
</g>
<!-- Node5 -->
<g id="Node000005" class="node">
<title>Node5</title>
<g id="a_Node000005"><a xlink:href="structedit__atlas_1_1core_1_1RgbImage.html" target="_top" xlink:title="An owned top&#45;to&#45;bottom packed RGB24 image.">
<polygon fill="white" stroke="#666666" points="269.5,-178.5 122.5,-178.5 122.5,-159.5 269.5,-159.5 269.5,-178.5"/>
<text text-anchor="middle" x="196" y="-166.5" font-family="Helvetica,sans-Serif" font-size="10.00">edit_atlas::core::RgbImage</text>
</a>
</g>
</g>
<!-- Node5&#45;&gt;Node4 -->
<g id="edge4_Node000004_Node000005" class="edge">
<title>Node5&#45;&gt;Node4</title>
<g id="a_edge4_Node000004_Node000005"><a xlink:title=" ">
<path fill="none" stroke="#9a32cd" stroke-dasharray="5,2" d="M195,-149.2C194.3,-136.14 193.39,-119.01 192.75,-107.11"/>
<polygon fill="#9a32cd" stroke="#9a32cd" points="191.51,-149.6 195.54,-159.4 198.5,-149.22 191.51,-149.6"/>
</a>
</g>
<text text-anchor="middle" x="202.5" y="-128" font-family="Helvetica,sans-Serif" font-size="10.00" fill="grey"> ptr</text>
</g>
<!-- Node6 -->
<g id="Node000006" class="node">
<title>Node6</title>
<g id="a_Node000006"><a xlink:title=" ">
<polygon fill="white" stroke="#666666" points="263,-250 129,-250 129,-231 263,-231 263,-250"/>
<text text-anchor="middle" x="196" y="-238" font-family="Helvetica,sans-Serif" font-size="10.00">std::vector&lt; std::byte &gt;</text>
</a>
</g>
</g>
<!-- Node6&#45;&gt;Node5 -->
<g id="edge5_Node000005_Node000006" class="edge">
<title>Node6&#45;&gt;Node5</title>
<g id="a_edge5_Node000005_Node000006"><a xlink:title=" ">
<path fill="none" stroke="#9a32cd" stroke-dasharray="5,2" d="M196,-220.71C196,-207 196,-189.05 196,-178.59"/>
<polygon fill="#9a32cd" stroke="#9a32cd" points="192.5,-220.98 196,-230.98 199.5,-220.98 192.5,-220.98"/>
</a>
</g>
<text text-anchor="middle" x="212" y="-205" font-family="Helvetica,sans-Serif" font-size="10.00" fill="grey"> pixels</text>
</g>
</g>
</svg>
