<?xml version="1.0" encoding="UTF-8" standalone="no"?>
<!DOCTYPE svg PUBLIC "-//W3C//DTD SVG 1.1//EN"
 "http://www.w3.org/Graphics/SVG/1.1/DTD/svg11.dtd">
<!-- Generated by graphviz version 2.43.0 (0)
 -->
<!-- Title: edit_atlas::media::VideoMediaInfo Pages: 1 -->
<svg width="1377pt" height="126pt"
 viewBox="0.00 0.00 1377.00 126.00" xmlns="http://www.w3.org/2000/svg" xmlns:xlink="http://www.w3.org/1999/xlink">
<g id="graph0" class="graph" transform="scale(1 1) rotate(0) translate(4 122)">
<title>edit_atlas::media::VideoMediaInfo</title>
<!-- Node1 -->
<g id="Node000001" class="node">
<title>Node1</title>
<g id="a_Node000001"><a xlink:title="Information discovered while opening a video media file.">
<polygon fill="#999999" stroke="#666666" points="1369,-73 1262,-73 1262,-43 1369,-43 1369,-73"/>
<text text-anchor="start" x="1270" y="-61" font-family="Helvetica,sans-Serif" font-size="10.00">edit_atlas::media::</text>
<text text-anchor="middle" x="1315.5" y="-50" font-family="Helvetica,sans-Serif" font-size="10.00">VideoMediaInfo</text>
</a>
</g>
</g>
<!-- Node2 -->
<g id="Node000002" class="node">
<title>Node2</title>
<g id="a_Node000002"><a xlink:title=" ">
<polygon fill="white" stroke="#666666" points="206,-57.5 141,-57.5 141,-38.5 206,-38.5 206,-57.5"/>
<text text-anchor="middle" x="173.5" y="-45.5" font-family="Helvetica,sans-Serif" font-size="10.00">std::string</text>
</a>
</g>
</g>
<!-- Node2&#45;&gt;Node1 -->
<g id="edge1_Node000001_Node000002" class="edge">
<title>Node2&#45;&gt;Node1</title>
<g id="a_edge1_Node000001_Node000002"><a xlink:title=" ">
<path fill="none" stroke="#9a32cd" stroke-dasharray="5,2" d="M198.96,-62.56C206.76,-66.73 215.56,-70.96 224,-74 268.66,-90.08 281.04,-96 328.5,-96 328.5,-96 328.5,-96 1106.5,-96 1160.09,-96 1220.21,-83.64 1261.98,-73.02"/>
<polygon fill="#9a32cd" stroke="#9a32cd" points="200.48,-59.4 190.04,-57.59 197.07,-65.51 200.48,-59.4"/>
</a>
</g>
<text text-anchor="middle" x="761.5" y="-110" font-family="Helvetica,sans-Serif" font-size="10.00" fill="grey"> container_long_name</text>
<text text-anchor="middle" x="761.5" y="-99" font-family="Helvetica,sans-Serif" font-size="10.00" fill="grey">container_names</text>
</g>
<!-- Node5 -->
<g id="Node000005" class="node">
<title>Node5</title>
<g id="a_Node000005"><a xlink:href="structedit__atlas_1_1media_1_1MediaMetadataEntry.html" target="_top" xlink:title="A stable metadata key and its textual value.">
<polygon fill="white" stroke="#666666" points="389,-63 270,-63 270,-33 389,-33 389,-63"/>
<text text-anchor="start" x="278" y="-51" font-family="Helvetica,sans-Serif" font-size="10.00">edit_atlas::media::</text>
<text text-anchor="middle" x="329.5" y="-40" font-family="Helvetica,sans-Serif" font-size="10.00">MediaMetadataEntry</text>
</a>
</g>
</g>
<!-- Node2&#45;&gt;Node5 -->
<g id="edge5_Node000005_Node000002" class="edge">
<title>Node2&#45;&gt;Node5</title>
<g id="a_edge5_Node000005_Node000002"><a xlink:title=" ">
<path fill="none" stroke="#9a32cd" stroke-dasharray="5,2" d="M216.43,-48C232.91,-48 252.11,-48 269.92,-48"/>
<polygon fill="#9a32cd" stroke="#9a32cd" points="216.04,-44.5 206.04,-48 216.04,-51.5 216.04,-44.5"/>
</a>
</g>
<text text-anchor="middle" x="238" y="-62" font-family="Helvetica,sans-Serif" font-size="10.00" fill="grey"> key</text>
<text text-anchor="middle" x="238" y="-51" font-family="Helvetica,sans-Serif" font-size="10.00" fill="grey">value</text>
</g>
<!-- Node7 -->
<g id="Node000007" class="node">
<title>Node7</title>
<g id="a_Node000007"><a xlink:href="structedit__atlas_1_1media_1_1MediaStreamInfo.html" target="_top" xlink:title="Presentation&#45;neutral information about one media stream.">
<polygon fill="white" stroke="#666666" points="941,-30 834,-30 834,0 941,0 941,-30"/>
<text text-anchor="start" x="842" y="-18" font-family="Helvetica,sans-Serif" font-size="10.00">edit_atlas::media::</text>
<text text-anchor="middle" x="887.5" y="-7" font-family="Helvetica,sans-Serif" font-size="10.00">MediaStreamInfo</text>
</a>
</g>
</g>
<!-- Node2&#45;&gt;Node7 -->
<g id="edge8_Node000007_Node000002" class="edge">
<title>Node2&#45;&gt;Node7</title>
<g id="a_edge8_Node000007_Node000002"><a xlink:title=" ">
<path fill="none" stroke="#9a32cd" stroke-dasharray="5,2" d="M215.16,-35.57C231.96,-31.02 251.75,-26.39 270,-24 477.23,3.18 726.97,-5.87 833.83,-11.69"/>
<polygon fill="#9a32cd" stroke="#9a32cd" points="213.8,-32.32 205.12,-38.38 215.69,-39.06 213.8,-32.32"/>
</a>
</g>
<text text-anchor="middle" x="452.5" y="-25" font-family="Helvetica,sans-Serif" font-size="10.00" fill="grey"> codec_long_name</text>
<text text-anchor="middle" x="452.5" y="-14" font-family="Helvetica,sans-Serif" font-size="10.00" fill="grey">codec_name</text>
</g>
<!-- Node3 -->
<g id="Node000003" class="node">
<title>Node3</title>
<g id="a_Node000003"><a xlink:title=" ">
<polygon fill="white" stroke="#666666" points="104,-63 0,-63 0,-33 104,-33 104,-63"/>
<text text-anchor="start" x="8" y="-51" font-family="Helvetica,sans-Serif" font-size="10.00">std::basic_string&lt;</text>
<text text-anchor="middle" x="52" y="-40" font-family="Helvetica,sans-Serif" font-size="10.00"> Char &gt;</text>
</a>
</g>
</g>
<!-- Node3&#45;&gt;Node2 -->
<g id="edge2_Node000002_Node000003" class="edge">
<title>Node3&#45;&gt;Node2</title>
<g id="a_edge2_Node000002_Node000003"><a xlink:title=" ">
<path fill="none" stroke="#63b8ff" d="M114.1,-48C123.41,-48 132.68,-48 141,-48"/>
<polygon fill="#63b8ff" stroke="#63b8ff" points="114.03,-44.5 104.03,-48 114.03,-51.5 114.03,-44.5"/>
</a>
</g>
</g>
<!-- Node4 -->
<g id="Node000004" class="node">
<title>Node4</title>
<g id="a_Node000004"><a xlink:title=" ">
<polygon fill="white" stroke="#666666" points="689,-63 516,-63 516,-33 689,-33 689,-63"/>
<text text-anchor="start" x="524" y="-51" font-family="Helvetica,sans-Serif" font-size="10.00">std::vector&lt; edit_atlas</text>
<text text-anchor="middle" x="602.5" y="-40" font-family="Helvetica,sans-Serif" font-size="10.00">::media::MediaMetadataEntry &gt;</text>
</a>
</g>
</g>
<!-- Node4&#45;&gt;Node1 -->
<g id="edge3_Node000001_Node000004" class="edge">
<title>Node4&#45;&gt;Node1</title>
<g id="a_edge3_Node000001_Node000004"><a xlink:title=" ">
<path fill="none" stroke="#9a32cd" stroke-dasharray="5,2" d="M699.52,-49.35C851.58,-51.49 1142.73,-55.58 1261.79,-57.26"/>
<polygon fill="#9a32cd" stroke="#9a32cd" points="699.31,-45.85 689.26,-49.21 699.21,-52.85 699.31,-45.85"/>
</a>
</g>
<text text-anchor="middle" x="984.5" y="-56" font-family="Helvetica,sans-Serif" font-size="10.00" fill="grey"> metadata</text>
</g>
<!-- Node4&#45;&gt;Node7 -->
<g id="edge9_Node000007_Node000004" class="edge">
<title>Node4&#45;&gt;Node7</title>
<g id="a_edge9_Node000007_Node000004"><a xlink:title=" ">
<path fill="none" stroke="#9a32cd" stroke-dasharray="5,2" d="M699.22,-33.97C701.84,-33.64 704.44,-33.31 707,-33 749.59,-27.78 798,-22.99 833.81,-19.67"/>
<polygon fill="#9a32cd" stroke="#9a32cd" points="698.49,-30.54 689.03,-35.31 699.4,-37.48 698.49,-30.54"/>
</a>
</g>
<text text-anchor="middle" x="761.5" y="-36" font-family="Helvetica,sans-Serif" font-size="10.00" fill="grey"> metadata</text>
</g>
<!-- Node5&#45;&gt;Node4 -->
<g id="edge4_Node000004_Node000005" class="edge">
<title>Node5&#45;&gt;Node4</title>
<g id="a_edge4_Node000004_Node000005"><a xlink:title=" ">
<path fill="none" stroke="#9a32cd" stroke-dasharray="5,2" d="M399.53,-48C434.9,-48 478.31,-48 515.8,-48"/>
<polygon fill="#9a32cd" stroke="#9a32cd" points="399.3,-44.5 389.3,-48 399.3,-51.5 399.3,-44.5"/>
</a>
</g>
<text text-anchor="middle" x="452.5" y="-51" font-family="Helvetica,sans-Serif" font-size="10.00" fill="grey"> elements</text>
</g>
<!-- Node6 -->
<g id="Node000006" class="node">
<title>Node6</title>
<g id="a_Node000006"><a xlink:title=" ">
<polygon fill="white" stroke="#666666" points="1183,-30 1028,-30 1028,0 1183,0 1183,-30"/>
<text text-anchor="start" x="1036" y="-18" font-family="Helvetica,sans-Serif" font-size="10.00">std::vector&lt; edit_atlas</text>
<text text-anchor="middle" x="1105.5" y="-7" font-family="Helvetica,sans-Serif" font-size="10.00">::media::MediaStreamInfo &gt;</text>
</a>
</g>
</g>
<!-- Node6&#45;&gt;Node1 -->
<g id="edge6_Node000001_Node000006" class="edge">
<title>Node6&#45;&gt;Node1</title>
<g id="a_edge6_Node000001_Node000006"><a xlink:title=" ">
<path fill="none" stroke="#9a32cd" stroke-dasharray="5,2" d="M1192.97,-23.49C1210.01,-25.96 1227.66,-29.08 1244,-33 1254.73,-35.58 1266.11,-39.2 1276.52,-42.89"/>
<polygon fill="#9a32cd" stroke="#9a32cd" points="1193.42,-20.02 1183.03,-22.12 1192.46,-26.95 1193.42,-20.02"/>
</a>
</g>
<text text-anchor="middle" x="1222.5" y="-36" font-family="Helvetica,sans-Serif" font-size="10.00" fill="grey"> streams</text>
</g>
<!-- Node7&#45;&gt;Node6 -->
<g id="edge7_Node000006_Node000007" class="edge">
<title>Node7&#45;&gt;Node6</title>
<g id="a_edge7_Node000006_Node000007"><a xlink:title=" ">
<path fill="none" stroke="#9a32cd" stroke-dasharray="5,2" d="M951.11,-15C975.12,-15 1002.78,-15 1027.95,-15"/>
<polygon fill="#9a32cd" stroke="#9a32cd" points="951.06,-11.5 941.06,-15 951.06,-18.5 951.06,-11.5"/>
</a>
</g>
<text text-anchor="middle" x="984.5" y="-18" font-family="Helvetica,sans-Serif" font-size="10.00" fill="grey"> elements</text>
</g>
</g>
</svg>
