<?xml version="1.0" encoding="UTF-8" standalone="no"?>
<!DOCTYPE svg PUBLIC "-//W3C//DTD SVG 1.1//EN"
 "http://www.w3.org/Graphics/SVG/1.1/DTD/svg11.dtd">
<!-- Generated by graphviz version 2.43.0 (0)
 -->
<!-- Title: Graphical Class Hierarchy Pages: 1 -->
<svg width="270pt" height="278pt"
 viewBox="0.00 0.00 270.00 278.00" xmlns="http://www.w3.org/2000/svg" xmlns:xlink="http://www.w3.org/1999/xlink">
<g id="graph0" class="graph" transform="scale(1 1) rotate(0) translate(4 274)">
<title>Graphical Class Hierarchy</title>
<!-- Node0 -->
<g id="Node000000" class="node">
<title>Node0</title>
<g id="a_Node000000"><a xlink:title=" ">
<polygon fill="#e0e0e0" stroke="#999999" points="56,-144.5 0,-144.5 0,-125.5 56,-125.5 56,-144.5"/>
<text text-anchor="middle" x="28" y="-132.5" font-family="Helvetica,sans-Serif" font-size="10.00">QObject</text>
</a>
</g>
</g>
<!-- Node1 -->
<g id="Node000001" class="node">
<title>Node1</title>
<g id="a_Node000001"><a xlink:href="classedit__atlas_1_1presentation_1_1AppearanceController.html" target="_top" xlink:title="Owns the appearance preference and the appearance actually presented.">
<polygon fill="white" stroke="#666666" points="243,-270 111,-270 111,-240 243,-240 243,-270"/>
<text text-anchor="start" x="119" y="-258" font-family="Helvetica,sans-Serif" font-size="10.00">edit_atlas::presentation</text>
<text text-anchor="middle" x="177" y="-247" font-family="Helvetica,sans-Serif" font-size="10.00">::AppearanceController</text>
</a>
</g>
</g>
<!-- Node0&#45;&gt;Node1 -->
<g id="edge8_Node000000_Node000001" class="edge">
<title>Node0&#45;&gt;Node1</title>
<g id="a_edge8_Node000000_Node000001"><a xlink:title=" ">
<path fill="none" stroke="#63b8ff" d="M36.58,-154.03C46.22,-175.83 64.95,-211.1 92,-231 97.74,-235.22 104.21,-238.71 110.94,-241.58"/>
<polygon fill="#63b8ff" stroke="#63b8ff" points="39.68,-152.39 32.57,-144.53 33.23,-155.11 39.68,-152.39"/>
</a>
</g>
</g>
<!-- Node2 -->
<g id="Node000002" class="node">
<title>Node2</title>
<g id="a_Node000002"><a xlink:href="classedit__atlas_1_1presentation_1_1SupportBundleViewModel.html" target="_top" xlink:title="Owns asynchronous diagnostic&#45;bundle export state for desktop frontends.">
<polygon fill="white" stroke="#666666" points="251,-222 103,-222 103,-192 251,-192 251,-222"/>
<text text-anchor="start" x="111" y="-210" font-family="Helvetica,sans-Serif" font-size="10.00">edit_atlas::presentation</text>
<text text-anchor="middle" x="177" y="-199" font-family="Helvetica,sans-Serif" font-size="10.00">::SupportBundleViewModel</text>
</a>
</g>
</g>
<!-- Node0&#45;&gt;Node2 -->
<g id="edge9_Node000000_Node000002" class="edge">
<title>Node0&#45;&gt;Node2</title>
<g id="a_edge9_Node000000_Node000002"><a xlink:title=" ">
<path fill="none" stroke="#63b8ff" d="M46.83,-151.49C58.82,-161.81 75.42,-174.69 92,-183 98.78,-186.4 106.11,-189.38 113.53,-191.99"/>
<polygon fill="#63b8ff" stroke="#63b8ff" points="49.13,-148.84 39.32,-144.83 44.48,-154.08 49.13,-148.84"/>
</a>
</g>
</g>
<!-- Node3 -->
<g id="Node000003" class="node">
<title>Node3</title>
<g id="a_Node000003"><a xlink:href="classedit__atlas_1_1presentation_1_1SupportBundleWorkflow.html" target="_top" xlink:title="Owns Qt asynchronous execution for diagnostic support&#45;bundle creation.">
<polygon fill="white" stroke="#666666" points="246.5,-174 107.5,-174 107.5,-144 246.5,-144 246.5,-174"/>
<text text-anchor="start" x="115.5" y="-162" font-family="Helvetica,sans-Serif" font-size="10.00">edit_atlas::presentation</text>
<text text-anchor="middle" x="177" y="-151" font-family="Helvetica,sans-Serif" font-size="10.00">::SupportBundleWorkflow</text>
</a>
</g>
</g>
<!-- Node0&#45;&gt;Node3 -->
<g id="edge10_Node000000_Node000003" class="edge">
<title>Node0&#45;&gt;Node3</title>
<g id="a_edge10_Node000000_Node000003"><a xlink:title=" ">
<path fill="none" stroke="#63b8ff" d="M66.31,-141.09C78.81,-143.13 93.16,-145.47 107.27,-147.78"/>
<polygon fill="#63b8ff" stroke="#63b8ff" points="66.74,-137.62 56.31,-139.46 65.61,-144.52 66.74,-137.62"/>
</a>
</g>
</g>
<!-- Node4 -->
<g id="Node000004" class="node">
<title>Node4</title>
<g id="a_Node000004"><a xlink:href="classedit__atlas_1_1presentation_1_1TimelineDocumentViewModel.html" target="_top" xlink:title="Owns one imported timeline and its frontend&#45;neutral MVVM presentation state.">
<polygon fill="white" stroke="#666666" points="262,-126 92,-126 92,-96 262,-96 262,-126"/>
<text text-anchor="start" x="100" y="-114" font-family="Helvetica,sans-Serif" font-size="10.00">edit_atlas::presentation</text>
<text text-anchor="middle" x="177" y="-103" font-family="Helvetica,sans-Serif" font-size="10.00">::TimelineDocumentViewModel</text>
</a>
</g>
</g>
<!-- Node0&#45;&gt;Node4 -->
<g id="edge11_Node000000_Node000004" class="edge">
<title>Node0&#45;&gt;Node4</title>
<g id="a_edge11_Node000000_Node000004"><a xlink:title=" ">
<path fill="none" stroke="#63b8ff" d="M66.24,-128.92C74.16,-127.63 82.82,-126.21 91.7,-124.76"/>
<polygon fill="#63b8ff" stroke="#63b8ff" points="65.61,-125.48 56.31,-130.54 66.74,-132.38 65.61,-125.48"/>
</a>
</g>
</g>
<!-- Node5 -->
<g id="Node000005" class="node">
<title>Node5</title>
<g id="a_Node000005"><a xlink:href="classedit__atlas_1_1presentation_1_1TimelineDocumentWorkflow.html" target="_top" xlink:title="Owns Qt asynchronous execution for the UI&#45;independent document services.">
<polygon fill="white" stroke="#666666" points="257.5,-78 96.5,-78 96.5,-48 257.5,-48 257.5,-78"/>
<text text-anchor="start" x="104.5" y="-66" font-family="Helvetica,sans-Serif" font-size="10.00">edit_atlas::presentation</text>
<text text-anchor="middle" x="177" y="-55" font-family="Helvetica,sans-Serif" font-size="10.00">::TimelineDocumentWorkflow</text>
</a>
</g>
</g>
<!-- Node0&#45;&gt;Node5 -->
<g id="edge12_Node000000_Node000005" class="edge">
<title>Node0&#45;&gt;Node5</title>
<g id="a_edge12_Node000000_Node000005"><a xlink:title=" ">
<path fill="none" stroke="#63b8ff" d="M46.83,-118.51C58.82,-108.19 75.42,-95.31 92,-87 98.78,-83.6 106.11,-80.62 113.53,-78.01"/>
<polygon fill="#63b8ff" stroke="#63b8ff" points="44.48,-115.92 39.32,-125.17 49.13,-121.16 44.48,-115.92"/>
</a>
</g>
</g>
<!-- Node6 -->
<g id="Node000006" class="node">
<title>Node6</title>
<g id="a_Node000006"><a xlink:href="classedit__atlas_1_1presentation_1_1TimelineTemplateViewModel.html" target="_top" xlink:title="Owns reusable&#45;template catalog and selection state for desktop frontends.">
<polygon fill="white" stroke="#666666" points="259,-30 95,-30 95,0 259,0 259,-30"/>
<text text-anchor="start" x="103" y="-18" font-family="Helvetica,sans-Serif" font-size="10.00">edit_atlas::presentation</text>
<text text-anchor="middle" x="177" y="-7" font-family="Helvetica,sans-Serif" font-size="10.00">::TimelineTemplateViewModel</text>
</a>
</g>
</g>
<!-- Node0&#45;&gt;Node6 -->
<g id="edge13_Node000000_Node000006" class="edge">
<title>Node0&#45;&gt;Node6</title>
<g id="a_edge13_Node000000_Node000006"><a xlink:title=" ">
<path fill="none" stroke="#63b8ff" d="M36.58,-115.97C46.22,-94.17 64.95,-58.9 92,-39 96.64,-35.59 101.76,-32.66 107.1,-30.14"/>
<polygon fill="#63b8ff" stroke="#63b8ff" points="33.23,-114.89 32.57,-125.47 39.68,-117.61 33.23,-114.89"/>
</a>
</g>
</g>
</g>
</svg>
