<?xml version="1.0" encoding="UTF-8" standalone="no"?>
<!DOCTYPE svg PUBLIC "-//W3C//DTD SVG 1.1//EN"
 "http://www.w3.org/Graphics/SVG/1.1/DTD/svg11.dtd">
<!-- Generated by graphviz version 2.43.0 (0)
 -->
<!-- Title: Graphical Class Hierarchy Pages: 1 -->
<svg width="270pt" height="230pt"
 viewBox="0.00 0.00 270.00 230.00" xmlns="http://www.w3.org/2000/svg" xmlns:xlink="http://www.w3.org/1999/xlink">
<g id="graph0" class="graph" transform="scale(1 1) rotate(0) translate(4 226)">
<title>Graphical Class Hierarchy</title>
<!-- Node0 -->
<g id="Node000000" class="node">
<title>Node0</title>
<g id="a_Node000000"><a xlink:title=" ">
<polygon fill="#e0e0e0" stroke="#999999" points="56,-120.5 0,-120.5 0,-101.5 56,-101.5 56,-120.5"/>
<text text-anchor="middle" x="28" y="-108.5" font-family="Helvetica,sans-Serif" font-size="10.00">QObject</text>
</a>
</g>
</g>
<!-- Node1 -->
<g id="Node000001" class="node">
<title>Node1</title>
<g id="a_Node000001"><a xlink:href="classedit__atlas_1_1presentation_1_1SupportBundleViewModel.html" target="_top" xlink:title="Owns asynchronous diagnostic&#45;bundle export state for desktop frontends.">
<polygon fill="white" stroke="#666666" points="251,-222 103,-222 103,-192 251,-192 251,-222"/>
<text text-anchor="start" x="111" y="-210" font-family="Helvetica,sans-Serif" font-size="10.00">edit_atlas::presentation</text>
<text text-anchor="middle" x="177" y="-199" font-family="Helvetica,sans-Serif" font-size="10.00">::SupportBundleViewModel</text>
</a>
</g>
</g>
<!-- Node0&#45;&gt;Node1 -->
<g id="edge8_Node000000_Node000001" class="edge">
<title>Node0&#45;&gt;Node1</title>
<g id="a_edge8_Node000000_Node000001"><a xlink:title=" ">
<path fill="none" stroke="#63b8ff" d="M40.79,-129.72C52.03,-146.09 70.42,-169.32 92,-183 97.38,-186.41 103.26,-189.35 109.32,-191.88"/>
<polygon fill="#63b8ff" stroke="#63b8ff" points="43.46,-127.41 35.02,-121 37.62,-131.27 43.46,-127.41"/>
</a>
</g>
</g>
<!-- Node2 -->
<g id="Node000002" class="node">
<title>Node2</title>
<g id="a_Node000002"><a xlink:href="classedit__atlas_1_1presentation_1_1SupportBundleWorkflow.html" target="_top" xlink:title="Owns Qt asynchronous execution for diagnostic support&#45;bundle creation.">
<polygon fill="white" stroke="#666666" points="246.5,-174 107.5,-174 107.5,-144 246.5,-144 246.5,-174"/>
<text text-anchor="start" x="115.5" y="-162" font-family="Helvetica,sans-Serif" font-size="10.00">edit_atlas::presentation</text>
<text text-anchor="middle" x="177" y="-151" font-family="Helvetica,sans-Serif" font-size="10.00">::SupportBundleWorkflow</text>
</a>
</g>
</g>
<!-- Node0&#45;&gt;Node2 -->
<g id="edge9_Node000000_Node000002" class="edge">
<title>Node0&#45;&gt;Node2</title>
<g id="a_edge9_Node000000_Node000002"><a xlink:title=" ">
<path fill="none" stroke="#63b8ff" d="M62.3,-124.29C71.83,-127.93 82.27,-131.76 92,-135 101.21,-138.06 111.07,-141.1 120.67,-143.92"/>
<polygon fill="#63b8ff" stroke="#63b8ff" points="63.35,-120.95 52.76,-120.6 60.82,-127.48 63.35,-120.95"/>
</a>
</g>
</g>
<!-- Node3 -->
<g id="Node000003" class="node">
<title>Node3</title>
<g id="a_Node000003"><a xlink:href="classedit__atlas_1_1presentation_1_1TimelineDocumentViewModel.html" target="_top" xlink:title="Owns one imported timeline and its frontend&#45;neutral MVVM presentation state.">
<polygon fill="white" stroke="#666666" points="262,-126 92,-126 92,-96 262,-96 262,-126"/>
<text text-anchor="start" x="100" y="-114" font-family="Helvetica,sans-Serif" font-size="10.00">edit_atlas::presentation</text>
<text text-anchor="middle" x="177" y="-103" font-family="Helvetica,sans-Serif" font-size="10.00">::TimelineDocumentViewModel</text>
</a>
</g>
</g>
<!-- Node0&#45;&gt;Node3 -->
<g id="edge10_Node000000_Node000003" class="edge">
<title>Node0&#45;&gt;Node3</title>
<g id="a_edge10_Node000000_Node000003"><a xlink:title=" ">
<path fill="none" stroke="#63b8ff" d="M66.5,-111C74.35,-111 82.92,-111 91.7,-111"/>
<polygon fill="#63b8ff" stroke="#63b8ff" points="66.31,-107.5 56.31,-111 66.31,-114.5 66.31,-107.5"/>
</a>
</g>
</g>
<!-- Node4 -->
<g id="Node000004" class="node">
<title>Node4</title>
<g id="a_Node000004"><a xlink:href="classedit__atlas_1_1presentation_1_1TimelineDocumentWorkflow.html" target="_top" xlink:title="Owns Qt asynchronous execution for the UI&#45;independent document services.">
<polygon fill="white" stroke="#666666" points="257.5,-78 96.5,-78 96.5,-48 257.5,-48 257.5,-78"/>
<text text-anchor="start" x="104.5" y="-66" font-family="Helvetica,sans-Serif" font-size="10.00">edit_atlas::presentation</text>
<text text-anchor="middle" x="177" y="-55" font-family="Helvetica,sans-Serif" font-size="10.00">::TimelineDocumentWorkflow</text>
</a>
</g>
</g>
<!-- Node0&#45;&gt;Node4 -->
<g id="edge11_Node000000_Node000004" class="edge">
<title>Node0&#45;&gt;Node4</title>
<g id="a_edge11_Node000000_Node000004"><a xlink:title=" ">
<path fill="none" stroke="#63b8ff" d="M62.3,-97.71C71.83,-94.07 82.27,-90.24 92,-87 101.21,-83.94 111.07,-80.9 120.67,-78.08"/>
<polygon fill="#63b8ff" stroke="#63b8ff" points="60.82,-94.52 52.76,-101.4 63.35,-101.05 60.82,-94.52"/>
</a>
</g>
</g>
<!-- Node5 -->
<g id="Node000005" class="node">
<title>Node5</title>
<g id="a_Node000005"><a xlink:href="classedit__atlas_1_1presentation_1_1TimelineTemplateViewModel.html" target="_top" xlink:title="Owns reusable&#45;template catalog and selection state for desktop frontends.">
<polygon fill="white" stroke="#666666" points="259,-30 95,-30 95,0 259,0 259,-30"/>
<text text-anchor="start" x="103" y="-18" font-family="Helvetica,sans-Serif" font-size="10.00">edit_atlas::presentation</text>
<text text-anchor="middle" x="177" y="-7" font-family="Helvetica,sans-Serif" font-size="10.00">::TimelineTemplateViewModel</text>
</a>
</g>
</g>
<!-- Node0&#45;&gt;Node5 -->
<g id="edge12_Node000000_Node000005" class="edge">
<title>Node0&#45;&gt;Node5</title>
<g id="a_edge12_Node000000_Node000005"><a xlink:title=" ">
<path fill="none" stroke="#63b8ff" d="M40.79,-92.28C52.03,-75.91 70.42,-52.68 92,-39 97.38,-35.59 103.26,-32.65 109.32,-30.12"/>
<polygon fill="#63b8ff" stroke="#63b8ff" points="37.62,-90.73 35.02,-101 43.46,-94.59 37.62,-90.73"/>
</a>
</g>
</g>
</g>
</svg>
