<?xml version="1.0" encoding="UTF-8" standalone="no"?>
<!DOCTYPE svg PUBLIC "-//W3C//DTD SVG 1.1//EN"
 "http://www.w3.org/Graphics/SVG/1.1/DTD/svg11.dtd">
<!-- Generated by graphviz version 2.43.0 (0)
 -->
<!-- Title: edit_atlas::core::ExportRequest Pages: 1 -->
<svg width="1829pt" height="433pt"
 viewBox="0.00 0.00 1829.00 433.00" xmlns="http://www.w3.org/2000/svg" xmlns:xlink="http://www.w3.org/1999/xlink">
<g id="graph0" class="graph" transform="scale(1 1) rotate(0) translate(4 429)">
<title>edit_atlas::core::ExportRequest</title>
<!-- Node1 -->
<g id="Node000001" class="node">
<title>Node1</title>
<g id="a_Node000001"><a xlink:title="A document and format&#45;specific options passed to an exporter.">
<polygon fill="#999999" stroke="#666666" points="1821,-99 1692,-99 1692,-69 1821,-69 1821,-99"/>
<text text-anchor="start" x="1700" y="-87" font-family="Helvetica,sans-Serif" font-size="10.00">edit_atlas::core::Export</text>
<text text-anchor="middle" x="1756.5" y="-76" font-family="Helvetica,sans-Serif" font-size="10.00">Request</text>
</a>
</g>
</g>
<!-- Node2 -->
<g id="Node000002" class="node">
<title>Node2</title>
<g id="a_Node000002"><a xlink:href="structedit__atlas_1_1core_1_1TimelineDocument.html" target="_top" xlink:title="A format&#45;independent editorial timeline and its import diagnostics.">
<polygon fill="white" stroke="#666666" points="1560,-320 1420,-320 1420,-290 1560,-290 1560,-320"/>
<text text-anchor="start" x="1428" y="-308" font-family="Helvetica,sans-Serif" font-size="10.00">edit_atlas::core::Timeline</text>
<text text-anchor="middle" x="1490" y="-297" font-family="Helvetica,sans-Serif" font-size="10.00">Document</text>
</a>
</g>
</g>
<!-- Node2&#45;&gt;Node1 -->
<g id="edge1_Node000001_Node000002" class="edge">
<title>Node2&#45;&gt;Node1</title>
<g id="a_edge1_Node000001_Node000002"><a xlink:title=" ">
<path fill="none" stroke="#9a32cd" stroke-dasharray="5,2" d="M1517.18,-283.12C1570.78,-238.34 1691.81,-137.22 1737.54,-99"/>
<polygon fill="#9a32cd" stroke="#9a32cd" points="1514.61,-280.71 1509.18,-289.81 1519.1,-286.08 1514.61,-280.71"/>
</a>
</g>
<text text-anchor="middle" x="1631.5" y="-223" font-family="Helvetica,sans-Serif" font-size="10.00" fill="grey"> document</text>
</g>
<!-- Node3 -->
<g id="Node000003" class="node">
<title>Node3</title>
<g id="a_Node000003"><a xlink:title=" ">
<polygon fill="white" stroke="#666666" points="206,-312.5 141,-312.5 141,-293.5 206,-293.5 206,-312.5"/>
<text text-anchor="middle" x="173.5" y="-300.5" font-family="Helvetica,sans-Serif" font-size="10.00">std::string</text>
</a>
</g>
</g>
<!-- Node3&#45;&gt;Node2 -->
<g id="edge2_Node000002_Node000003" class="edge">
<title>Node3&#45;&gt;Node2</title>
<g id="a_edge2_Node000002_Node000003"><a xlink:title=" ">
<path fill="none" stroke="#9a32cd" stroke-dasharray="5,2" d="M204.34,-316.25C210.72,-318.57 217.49,-320.66 224,-322 325.08,-342.77 352.83,-329 456,-331 818.99,-338.04 1253.63,-317.7 1419.79,-308.87"/>
<polygon fill="#9a32cd" stroke="#9a32cd" points="205.35,-312.88 194.76,-312.5 202.8,-319.4 205.35,-312.88"/>
</a>
</g>
<text text-anchor="middle" x="826" y="-334" font-family="Helvetica,sans-Serif" font-size="10.00" fill="grey"> title</text>
</g>
<!-- Node7 -->
<g id="Node000007" class="node">
<title>Node7</title>
<g id="a_Node000007"><a xlink:href="structedit__atlas_1_1core_1_1EditEvent.html" target="_top" xlink:title="A single editorial event with source and destination ranges.">
<polygon fill="white" stroke="#666666" points="1060.5,-271.5 916.5,-271.5 916.5,-252.5 1060.5,-252.5 1060.5,-271.5"/>
<text text-anchor="middle" x="988.5" y="-259.5" font-family="Helvetica,sans-Serif" font-size="10.00">edit_atlas::core::EditEvent</text>
</a>
</g>
</g>
<!-- Node3&#45;&gt;Node7 -->
<g id="edge7_Node000007_Node000003" class="edge">
<title>Node3&#45;&gt;Node7</title>
<g id="a_edge7_Node000007_Node000003"><a xlink:title=" ">
<path fill="none" stroke="#9a32cd" stroke-dasharray="5,2" d="M216.25,-307.52C218.87,-307.71 221.47,-307.87 224,-308 244.86,-309.05 250.11,-308.27 271,-308 481.3,-305.27 534.01,-305.72 744,-294 808.97,-290.37 825.6,-292.32 890,-283 909.54,-280.17 931.01,-275.7 948.82,-271.61"/>
<polygon fill="#9a32cd" stroke="#9a32cd" points="216.41,-304.02 206.15,-306.68 215.83,-311 216.41,-304.02"/>
</a>
</g>
<text text-anchor="middle" x="517.5" y="-319" font-family="Helvetica,sans-Serif" font-size="10.00" fill="grey"> identifier</text>
<text text-anchor="middle" x="517.5" y="-308" font-family="Helvetica,sans-Serif" font-size="10.00" fill="grey">reel</text>
</g>
<!-- Node8 -->
<g id="Node000008" class="node">
<title>Node8</title>
<g id="a_Node000008"><a xlink:href="structedit__atlas_1_1core_1_1Track.html" target="_top" xlink:title="A format&#45;independent track category and its source identifier.">
<polygon fill="white" stroke="#666666" points="579,-292.5 456,-292.5 456,-273.5 579,-273.5 579,-292.5"/>
<text text-anchor="middle" x="517.5" y="-280.5" font-family="Helvetica,sans-Serif" font-size="10.00">edit_atlas::core::Track</text>
</a>
</g>
</g>
<!-- Node3&#45;&gt;Node8 -->
<g id="edge9_Node000008_Node000003" class="edge">
<title>Node3&#45;&gt;Node8</title>
<g id="a_edge9_Node000008_Node000003"><a xlink:title=" ">
<path fill="none" stroke="#9a32cd" stroke-dasharray="5,2" d="M216.25,-297.72C218.87,-297.46 221.47,-297.21 224,-297 304.04,-290.24 396.7,-286.49 455.91,-284.61"/>
<polygon fill="#9a32cd" stroke="#9a32cd" points="215.72,-294.26 206.15,-298.82 216.47,-301.22 215.72,-294.26"/>
</a>
</g>
<text text-anchor="middle" x="247.5" y="-300" font-family="Helvetica,sans-Serif" font-size="10.00" fill="grey"> identifier</text>
</g>
<!-- Node11 -->
<g id="Node000011" class="node">
<title>Node11</title>
<g id="a_Node000011"><a xlink:href="structedit__atlas_1_1core_1_1Comment.html" target="_top" xlink:title="A human&#45;authored annotation associated with an edit event.">
<polygon fill="white" stroke="#666666" points="436.5,-248.5 290.5,-248.5 290.5,-229.5 436.5,-229.5 436.5,-248.5"/>
<text text-anchor="middle" x="363.5" y="-236.5" font-family="Helvetica,sans-Serif" font-size="10.00">edit_atlas::core::Comment</text>
</a>
</g>
</g>
<!-- Node3&#45;&gt;Node11 -->
<g id="edge13_Node000011_Node000003" class="edge">
<title>Node3&#45;&gt;Node11</title>
<g id="a_edge13_Node000011_Node000003"><a xlink:title=" ">
<path fill="none" stroke="#9a32cd" stroke-dasharray="5,2" d="M186.35,-284.96C195.2,-273.12 208.42,-258.49 224,-251 244.23,-241.27 268.04,-237.03 290.16,-235.57"/>
<polygon fill="#9a32cd" stroke="#9a32cd" points="183.37,-283.12 180.47,-293.31 189.09,-287.15 183.37,-283.12"/>
</a>
</g>
<text text-anchor="middle" x="247.5" y="-254" font-family="Helvetica,sans-Serif" font-size="10.00" fill="grey"> text</text>
</g>
<!-- Node13 -->
<g id="Node000013" class="node">
<title>Node13</title>
<g id="a_Node000013"><a xlink:href="structedit__atlas_1_1core_1_1MetadataEntry.html" target="_top" xlink:title="A metadata property.">
<polygon fill="white" stroke="#666666" points="435.5,-178 291.5,-178 291.5,-148 435.5,-148 435.5,-178"/>
<text text-anchor="start" x="299.5" y="-166" font-family="Helvetica,sans-Serif" font-size="10.00">edit_atlas::core::Metadata</text>
<text text-anchor="middle" x="363.5" y="-155" font-family="Helvetica,sans-Serif" font-size="10.00">Entry</text>
</a>
</g>
</g>
<!-- Node3&#45;&gt;Node13 -->
<g id="edge16_Node000013_Node000003" class="edge">
<title>Node3&#45;&gt;Node13</title>
<g id="a_edge16_Node000013_Node000003"><a xlink:title=" ">
<path fill="none" stroke="#9a32cd" stroke-dasharray="5,2" d="M182.25,-283.94C190.35,-266.11 204.58,-239.78 224,-223 248.09,-202.18 280.51,-187.61 307.93,-178.04"/>
<polygon fill="#9a32cd" stroke="#9a32cd" points="178.96,-282.75 178.21,-293.32 185.38,-285.52 178.96,-282.75"/>
</a>
</g>
<text text-anchor="middle" x="247.5" y="-226" font-family="Helvetica,sans-Serif" font-size="10.00" fill="grey"> key</text>
</g>
<!-- Node15 -->
<g id="Node000015" class="node">
<title>Node15</title>
<g id="a_Node000015"><a xlink:href="structedit__atlas_1_1core_1_1Diagnostic.html" target="_top" xlink:title="A machine&#45;identifiable diagnostic with a human&#45;readable explanation.">
<polygon fill="white" stroke="#666666" points="438,-407.5 289,-407.5 289,-388.5 438,-388.5 438,-407.5"/>
<text text-anchor="middle" x="363.5" y="-395.5" font-family="Helvetica,sans-Serif" font-size="10.00">edit_atlas::core::Diagnostic</text>
</a>
</g>
</g>
<!-- Node3&#45;&gt;Node15 -->
<g id="edge20_Node000015_Node000003" class="edge">
<title>Node3&#45;&gt;Node15</title>
<g id="a_edge20_Node000015_Node000003"><a xlink:title=" ">
<path fill="none" stroke="#9a32cd" stroke-dasharray="5,2" d="M182.6,-321.61C190.67,-337.85 204.66,-360.69 224,-373 243.17,-385.2 266.69,-391.84 288.87,-395.34"/>
<polygon fill="#9a32cd" stroke="#9a32cd" points="185.75,-320.08 178.34,-312.5 179.41,-323.05 185.75,-320.08"/>
</a>
</g>
<text text-anchor="middle" x="247.5" y="-405" font-family="Helvetica,sans-Serif" font-size="10.00" fill="grey"> code</text>
<text text-anchor="middle" x="247.5" y="-394" font-family="Helvetica,sans-Serif" font-size="10.00" fill="grey">message</text>
</g>
<!-- Node4 -->
<g id="Node000004" class="node">
<title>Node4</title>
<g id="a_Node000004"><a xlink:title=" ">
<polygon fill="white" stroke="#666666" points="104,-318 0,-318 0,-288 104,-288 104,-318"/>
<text text-anchor="start" x="8" y="-306" font-family="Helvetica,sans-Serif" font-size="10.00">std::basic_string&lt;</text>
<text text-anchor="middle" x="52" y="-295" font-family="Helvetica,sans-Serif" font-size="10.00"> Char &gt;</text>
</a>
</g>
</g>
<!-- Node4&#45;&gt;Node3 -->
<g id="edge3_Node000003_Node000004" class="edge">
<title>Node4&#45;&gt;Node3</title>
<g id="a_edge3_Node000003_Node000004"><a xlink:title=" ">
<path fill="none" stroke="#63b8ff" d="M114.1,-303C123.41,-303 132.68,-303 141,-303"/>
<polygon fill="#63b8ff" stroke="#63b8ff" points="114.03,-299.5 104.03,-303 114.03,-306.5 114.03,-299.5"/>
</a>
</g>
</g>
<!-- Node5 -->
<g id="Node000005" class="node">
<title>Node5</title>
<g id="a_Node000005"><a xlink:href="classedit__atlas_1_1core_1_1FrameRate.html" target="_top" xlink:title="An exact, positive rational number of frames per second.">
<polygon fill="white" stroke="#666666" points="1315,-383.5 1164,-383.5 1164,-364.5 1315,-364.5 1315,-383.5"/>
<text text-anchor="middle" x="1239.5" y="-371.5" font-family="Helvetica,sans-Serif" font-size="10.00">edit_atlas::core::FrameRate</text>
</a>
</g>
</g>
<!-- Node5&#45;&gt;Node2 -->
<g id="edge4_Node000002_Node000005" class="edge">
<title>Node5&#45;&gt;Node2</title>
<g id="a_edge4_Node000002_Node000005"><a xlink:title=" ">
<path fill="none" stroke="#9a32cd" stroke-dasharray="5,2" d="M1325.44,-364.59C1347.09,-361.07 1370.12,-356.33 1391,-350 1415.73,-342.51 1442.27,-330.01 1461.49,-320.09"/>
<polygon fill="#9a32cd" stroke="#9a32cd" points="1324.62,-361.17 1315.28,-366.17 1325.7,-368.09 1324.62,-361.17"/>
</a>
</g>
<text text-anchor="middle" x="1362" y="-366" font-family="Helvetica,sans-Serif" font-size="10.00" fill="grey"> frame_rate</text>
</g>
<!-- Node6 -->
<g id="Node000006" class="node">
<title>Node6</title>
<g id="a_Node000006"><a xlink:title=" ">
<polygon fill="white" stroke="#666666" points="1303.5,-297 1175.5,-297 1175.5,-267 1303.5,-267 1303.5,-297"/>
<text text-anchor="start" x="1183.5" y="-285" font-family="Helvetica,sans-Serif" font-size="10.00">std::vector&lt; edit_atlas</text>
<text text-anchor="middle" x="1239.5" y="-274" font-family="Helvetica,sans-Serif" font-size="10.00">::core::EditEvent &gt;</text>
</a>
</g>
</g>
<!-- Node6&#45;&gt;Node2 -->
<g id="edge5_Node000002_Node000006" class="edge">
<title>Node6&#45;&gt;Node2</title>
<g id="a_edge5_Node000002_Node000006"><a xlink:title=" ">
<path fill="none" stroke="#9a32cd" stroke-dasharray="5,2" d="M1313.74,-288.78C1347.3,-291.89 1386.88,-295.55 1419.92,-298.61"/>
<polygon fill="#9a32cd" stroke="#9a32cd" points="1313.81,-285.27 1303.53,-287.83 1313.16,-292.24 1313.81,-285.27"/>
</a>
</g>
<text text-anchor="middle" x="1362" y="-298" font-family="Helvetica,sans-Serif" font-size="10.00" fill="grey"> events</text>
</g>
<!-- Node7&#45;&gt;Node6 -->
<g id="edge6_Node000006_Node000007" class="edge">
<title>Node7&#45;&gt;Node6</title>
<g id="a_edge6_Node000006_Node000007"><a xlink:title=" ">
<path fill="none" stroke="#9a32cd" stroke-dasharray="5,2" d="M1070.89,-268.54C1104.86,-271.27 1143.71,-274.39 1175.45,-276.94"/>
<polygon fill="#9a32cd" stroke="#9a32cd" points="1070.77,-265.02 1060.52,-267.7 1070.21,-271.99 1070.77,-265.02"/>
</a>
</g>
<text text-anchor="middle" x="1116.5" y="-277" font-family="Helvetica,sans-Serif" font-size="10.00" fill="grey"> elements</text>
</g>
<!-- Node8&#45;&gt;Node7 -->
<g id="edge8_Node000007_Node000008" class="edge">
<title>Node8&#45;&gt;Node7</title>
<g id="a_edge8_Node000007_Node000008"><a xlink:title=" ">
<path fill="none" stroke="#9a32cd" stroke-dasharray="5,2" d="M589.55,-280.11C664.33,-277.03 785.45,-271.93 890,-267 898.55,-266.6 907.52,-266.16 916.41,-265.71"/>
<polygon fill="#9a32cd" stroke="#9a32cd" points="589.17,-276.63 579.32,-280.53 589.45,-283.62 589.17,-276.63"/>
</a>
</g>
<text text-anchor="middle" x="670.5" y="-282" font-family="Helvetica,sans-Serif" font-size="10.00" fill="grey"> track</text>
</g>
<!-- Node9 -->
<g id="Node000009" class="node">
<title>Node9</title>
<g id="a_Node000009"><a xlink:href="classedit__atlas_1_1core_1_1TimecodeRange.html" target="_top" xlink:title="A validated half&#45;open timecode range of [start, end_exclusive).">
<polygon fill="white" stroke="#666666" points="743.5,-199 597.5,-199 597.5,-169 743.5,-169 743.5,-199"/>
<text text-anchor="start" x="605.5" y="-187" font-family="Helvetica,sans-Serif" font-size="10.00">edit_atlas::core::Timecode</text>
<text text-anchor="middle" x="670.5" y="-176" font-family="Helvetica,sans-Serif" font-size="10.00">Range</text>
</a>
</g>
</g>
<!-- Node9&#45;&gt;Node7 -->
<g id="edge10_Node000007_Node000009" class="edge">
<title>Node9&#45;&gt;Node7</title>
<g id="a_edge10_Node000007_Node000009"><a xlink:title=" ">
<path fill="none" stroke="#9a32cd" stroke-dasharray="5,2" d="M753.65,-192.52C804.63,-198.34 865.03,-206.36 890,-214 920.49,-223.33 953.21,-241.26 971.94,-252.37"/>
<polygon fill="#9a32cd" stroke="#9a32cd" points="753.93,-189.03 743.6,-191.39 753.14,-195.99 753.93,-189.03"/>
</a>
</g>
<text text-anchor="middle" x="826" y="-228" font-family="Helvetica,sans-Serif" font-size="10.00" fill="grey"> record_range</text>
<text text-anchor="middle" x="826" y="-217" font-family="Helvetica,sans-Serif" font-size="10.00" fill="grey">source_range</text>
</g>
<!-- Node10 -->
<g id="Node000010" class="node">
<title>Node10</title>
<g id="a_Node000010"><a xlink:title=" ">
<polygon fill="white" stroke="#666666" points="734.5,-247 606.5,-247 606.5,-217 734.5,-217 734.5,-247"/>
<text text-anchor="start" x="614.5" y="-235" font-family="Helvetica,sans-Serif" font-size="10.00">std::vector&lt; edit_atlas</text>
<text text-anchor="middle" x="670.5" y="-224" font-family="Helvetica,sans-Serif" font-size="10.00">::core::Comment &gt;</text>
</a>
</g>
</g>
<!-- Node10&#45;&gt;Node7 -->
<g id="edge11_Node000007_Node000010" class="edge">
<title>Node10&#45;&gt;Node7</title>
<g id="a_edge11_Node000007_Node000010"><a xlink:title=" ">
<path fill="none" stroke="#9a32cd" stroke-dasharray="5,2" d="M744.78,-238.96C796.45,-243.86 865.27,-250.4 916.43,-255.25"/>
<polygon fill="#9a32cd" stroke="#9a32cd" points="744.97,-235.46 734.69,-238 744.31,-242.43 744.97,-235.46"/>
</a>
</g>
<text text-anchor="middle" x="826" y="-255" font-family="Helvetica,sans-Serif" font-size="10.00" fill="grey"> comments</text>
</g>
<!-- Node11&#45;&gt;Node10 -->
<g id="edge12_Node000010_Node000011" class="edge">
<title>Node11&#45;&gt;Node10</title>
<g id="a_edge12_Node000010_Node000011"><a xlink:title=" ">
<path fill="none" stroke="#9a32cd" stroke-dasharray="5,2" d="M446.95,-237.11C497.07,-235.96 560.09,-234.51 606.27,-233.45"/>
<polygon fill="#9a32cd" stroke="#9a32cd" points="446.7,-233.61 436.78,-237.34 446.86,-240.61 446.7,-233.61"/>
</a>
</g>
<text text-anchor="middle" x="517.5" y="-239" font-family="Helvetica,sans-Serif" font-size="10.00" fill="grey"> elements</text>
</g>
<!-- Node12 -->
<g id="Node000012" class="node">
<title>Node12</title>
<g id="a_Node000012"><a xlink:title=" ">
<polygon fill="white" stroke="#666666" points="737,-151 604,-151 604,-121 737,-121 737,-151"/>
<text text-anchor="start" x="612" y="-139" font-family="Helvetica,sans-Serif" font-size="10.00">std::vector&lt; edit_atlas</text>
<text text-anchor="middle" x="670.5" y="-128" font-family="Helvetica,sans-Serif" font-size="10.00">::core::MetadataEntry &gt;</text>
</a>
</g>
</g>
<!-- Node12&#45;&gt;Node1 -->
<g id="edge22_Node000001_Node000012" class="edge">
<title>Node12&#45;&gt;Node1</title>
<g id="a_edge22_Node000001_Node000012"><a xlink:title=" ">
<path fill="none" stroke="#9a32cd" stroke-dasharray="5,2" d="M747.29,-124.74C811.18,-116.23 905.11,-106 987.5,-106 987.5,-106 987.5,-106 1491,-106 1559.77,-106 1638.26,-98.52 1691.76,-92.29"/>
<polygon fill="#9a32cd" stroke="#9a32cd" points="746.74,-121.29 737.3,-126.09 747.68,-128.22 746.74,-121.29"/>
</a>
</g>
<text text-anchor="middle" x="1239.5" y="-109" font-family="Helvetica,sans-Serif" font-size="10.00" fill="grey"> options</text>
</g>
<!-- Node12&#45;&gt;Node2 -->
<g id="edge17_Node000002_Node000012" class="edge">
<title>Node12&#45;&gt;Node2</title>
<g id="a_edge17_Node000002_Node000012"><a xlink:title=" ">
<path fill="none" stroke="#9a32cd" stroke-dasharray="5,2" d="M747.47,-141.67C789.63,-145.4 842.92,-151.07 890,-159 1081.25,-191.21 1126.91,-210.71 1315,-258 1355.36,-268.15 1400.75,-280.44 1435.05,-289.9"/>
<polygon fill="#9a32cd" stroke="#9a32cd" points="747.55,-138.16 737.28,-140.78 746.94,-145.13 747.55,-138.16"/>
</a>
</g>
<text text-anchor="middle" x="1116.5" y="-216" font-family="Helvetica,sans-Serif" font-size="10.00" fill="grey"> metadata</text>
</g>
<!-- Node12&#45;&gt;Node7 -->
<g id="edge14_Node000007_Node000012" class="edge">
<title>Node12&#45;&gt;Node7</title>
<g id="a_edge14_Node000007_Node000012"><a xlink:title=" ">
<path fill="none" stroke="#9a32cd" stroke-dasharray="5,2" d="M746.96,-152.96C752.04,-154.01 757.09,-155.04 762,-156 818.64,-167.12 837.79,-153.38 890,-178 928.8,-196.3 964.24,-234.4 979.54,-252.31"/>
<polygon fill="#9a32cd" stroke="#9a32cd" points="747.67,-149.53 737.16,-150.89 746.23,-156.38 747.67,-149.53"/>
</a>
</g>
<text text-anchor="middle" x="826" y="-181" font-family="Helvetica,sans-Serif" font-size="10.00" fill="grey"> metadata</text>
</g>
<!-- Node13&#45;&gt;Node12 -->
<g id="edge15_Node000012_Node000013" class="edge">
<title>Node13&#45;&gt;Node12</title>
<g id="a_edge15_Node000012_Node000013"><a xlink:title=" ">
<path fill="none" stroke="#9a32cd" stroke-dasharray="5,2" d="M445.66,-155.81C495.18,-151.43 557.65,-145.9 604,-141.8"/>
<polygon fill="#9a32cd" stroke="#9a32cd" points="445.28,-152.34 435.62,-156.7 445.89,-159.31 445.28,-152.34"/>
</a>
</g>
<text text-anchor="middle" x="517.5" y="-157" font-family="Helvetica,sans-Serif" font-size="10.00" fill="grey"> elements</text>
</g>
<!-- Node14 -->
<g id="Node000014" class="node">
<title>Node14</title>
<g id="a_Node000014"><a xlink:title=" ">
<polygon fill="white" stroke="#666666" points="890,-425 762,-425 762,-395 890,-395 890,-425"/>
<text text-anchor="start" x="770" y="-413" font-family="Helvetica,sans-Serif" font-size="10.00">std::vector&lt; edit_atlas</text>
<text text-anchor="middle" x="826" y="-402" font-family="Helvetica,sans-Serif" font-size="10.00">::core::Diagnostic &gt;</text>
</a>
</g>
</g>
<!-- Node14&#45;&gt;Node2 -->
<g id="edge18_Node000002_Node000014" class="edge">
<title>Node14&#45;&gt;Node2</title>
<g id="a_edge18_Node000002_Node000014"><a xlink:title=" ">
<path fill="none" stroke="#9a32cd" stroke-dasharray="5,2" d="M900.17,-411.09C995.86,-411.68 1168.54,-409.89 1315,-393 1349.2,-389.05 1359.53,-391.96 1391,-378 1423.39,-363.63 1455.22,-336.94 1473.44,-320.13"/>
<polygon fill="#9a32cd" stroke="#9a32cd" points="900.05,-407.59 890.02,-411.01 900,-414.59 900.05,-407.59"/>
</a>
</g>
<text text-anchor="middle" x="1116.5" y="-411" font-family="Helvetica,sans-Serif" font-size="10.00" fill="grey"> diagnostics</text>
</g>
<!-- Node15&#45;&gt;Node14 -->
<g id="edge19_Node000014_Node000015" class="edge">
<title>Node15&#45;&gt;Node14</title>
<g id="a_edge19_Node000014_Node000015"><a xlink:title=" ">
<path fill="none" stroke="#9a32cd" stroke-dasharray="5,2" d="M448.44,-400.19C538.81,-402.54 680.5,-406.23 761.86,-408.35"/>
<polygon fill="#9a32cd" stroke="#9a32cd" points="448.32,-396.68 438.23,-399.92 448.14,-403.68 448.32,-396.68"/>
</a>
</g>
<text text-anchor="middle" x="517.5" y="-406" font-family="Helvetica,sans-Serif" font-size="10.00" fill="grey"> elements</text>
</g>
<!-- Node16 -->
<g id="Node000016" class="node">
<title>Node16</title>
<g id="a_Node000016"><a xlink:title=" ">
<polygon fill="white" stroke="#666666" points="1565,-78 1415,-78 1415,-48 1565,-48 1565,-78"/>
<text text-anchor="start" x="1423" y="-66" font-family="Helvetica,sans-Serif" font-size="10.00">std::vector&lt; TimelineEvent</text>
<text text-anchor="middle" x="1490" y="-55" font-family="Helvetica,sans-Serif" font-size="10.00">Field &gt;</text>
</a>
</g>
</g>
<!-- Node16&#45;&gt;Node1 -->
<g id="edge21_Node000001_Node000016" class="edge">
<title>Node16&#45;&gt;Node1</title>
<g id="a_edge21_Node000001_Node000016"><a xlink:title=" ">
<path fill="none" stroke="#9a32cd" stroke-dasharray="5,2" d="M1575.01,-69.67C1612.84,-72.67 1656.77,-76.16 1691.81,-78.94"/>
<polygon fill="#9a32cd" stroke="#9a32cd" points="1575.28,-66.18 1565.03,-68.88 1574.72,-73.16 1575.28,-66.18"/>
</a>
</g>
<text text-anchor="middle" x="1631.5" y="-80" font-family="Helvetica,sans-Serif" font-size="10.00" fill="grey"> event_projection</text>
</g>
<!-- Node17 -->
<g id="Node000017" class="node">
<title>Node17</title>
<g id="a_Node000017"><a xlink:title=" ">
<polygon fill="white" stroke="#666666" points="1571,-30 1409,-30 1409,0 1571,0 1571,-30"/>
<text text-anchor="start" x="1417" y="-18" font-family="Helvetica,sans-Serif" font-size="10.00">std::vector&lt; edit_atlas</text>
<text text-anchor="middle" x="1490" y="-7" font-family="Helvetica,sans-Serif" font-size="10.00">::core::TimelineEventImage &gt;</text>
</a>
</g>
</g>
<!-- Node17&#45;&gt;Node1 -->
<g id="edge23_Node000001_Node000017" class="edge">
<title>Node17&#45;&gt;Node1</title>
<g id="a_edge23_Node000001_Node000017"><a xlink:title=" ">
<path fill="none" stroke="#9a32cd" stroke-dasharray="5,2" d="M1577,-32.21C1607.78,-38.92 1642.62,-47.12 1674,-56 1687.24,-59.75 1701.5,-64.42 1714.32,-68.86"/>
<polygon fill="#9a32cd" stroke="#9a32cd" points="1577.66,-28.78 1567.15,-30.09 1576.19,-35.62 1577.66,-28.78"/>
</a>
</g>
<text text-anchor="middle" x="1631.5" y="-59" font-family="Helvetica,sans-Serif" font-size="10.00" fill="grey"> event_images</text>
</g>
<!-- Node18 -->
<g id="Node000018" class="node">
<title>Node18</title>
<g id="a_Node000018"><a xlink:href="structedit__atlas_1_1core_1_1TimelineEventImage.html" target="_top" xlink:title="Associates an immutable RGB image with one event in an export document.">
<polygon fill="white" stroke="#666666" points="1309.5,-30 1169.5,-30 1169.5,0 1309.5,0 1309.5,-30"/>
<text text-anchor="start" x="1177.5" y="-18" font-family="Helvetica,sans-Serif" font-size="10.00">edit_atlas::core::Timeline</text>
<text text-anchor="middle" x="1239.5" y="-7" font-family="Helvetica,sans-Serif" font-size="10.00">EventImage</text>
</a>
</g>
</g>
<!-- Node18&#45;&gt;Node17 -->
<g id="edge24_Node000017_Node000018" class="edge">
<title>Node18&#45;&gt;Node17</title>
<g id="a_edge24_Node000017_Node000018"><a xlink:title=" ">
<path fill="none" stroke="#9a32cd" stroke-dasharray="5,2" d="M1319.99,-15C1348.35,-15 1380.31,-15 1408.73,-15"/>
<polygon fill="#9a32cd" stroke="#9a32cd" points="1319.72,-11.5 1309.72,-15 1319.72,-18.5 1319.72,-11.5"/>
</a>
</g>
<text text-anchor="middle" x="1362" y="-18" font-family="Helvetica,sans-Serif" font-size="10.00" fill="grey"> elements</text>
</g>
<!-- Node19 -->
<g id="Node000019" class="node">
<title>Node19</title>
<g id="a_Node000019"><a xlink:title=" ">
<polygon fill="white" stroke="#666666" points="1069,-30 908,-30 908,0 1069,0 1069,-30"/>
<text text-anchor="start" x="916" y="-18" font-family="Helvetica,sans-Serif" font-size="10.00">std::shared_ptr&lt; const</text>
<text text-anchor="middle" x="988.5" y="-7" font-family="Helvetica,sans-Serif" font-size="10.00"> edit_atlas::core::RgbImage &gt;</text>
</a>
</g>
</g>
<!-- Node19&#45;&gt;Node18 -->
<g id="edge25_Node000018_Node000019" class="edge">
<title>Node19&#45;&gt;Node18</title>
<g id="a_edge25_Node000018_Node000019"><a xlink:title=" ">
<path fill="none" stroke="#9a32cd" stroke-dasharray="5,2" d="M1079.63,-15C1109.15,-15 1141.46,-15 1169.2,-15"/>
<polygon fill="#9a32cd" stroke="#9a32cd" points="1079.31,-11.5 1069.31,-15 1079.31,-18.5 1079.31,-11.5"/>
</a>
</g>
<text text-anchor="middle" x="1116.5" y="-18" font-family="Helvetica,sans-Serif" font-size="10.00" fill="grey"> image</text>
</g>
<!-- Node20 -->
<g id="Node000020" class="node">
<title>Node20</title>
<g id="a_Node000020"><a xlink:href="structedit__atlas_1_1core_1_1RgbImage.html" target="_top" xlink:title="An owned top&#45;to&#45;bottom packed RGB24 image.">
<polygon fill="white" stroke="#666666" points="744,-24.5 597,-24.5 597,-5.5 744,-5.5 744,-24.5"/>
<text text-anchor="middle" x="670.5" y="-12.5" font-family="Helvetica,sans-Serif" font-size="10.00">edit_atlas::core::RgbImage</text>
</a>
</g>
</g>
<!-- Node20&#45;&gt;Node19 -->
<g id="edge26_Node000019_Node000020" class="edge">
<title>Node20&#45;&gt;Node19</title>
<g id="a_edge26_Node000019_Node000020"><a xlink:title=" ">
<path fill="none" stroke="#9a32cd" stroke-dasharray="5,2" d="M754.62,-15C801.97,-15 860.99,-15 907.77,-15"/>
<polygon fill="#9a32cd" stroke="#9a32cd" points="754.39,-11.5 744.39,-15 754.39,-18.5 754.39,-11.5"/>
</a>
</g>
<text text-anchor="middle" x="826" y="-18" font-family="Helvetica,sans-Serif" font-size="10.00" fill="grey"> ptr</text>
</g>
<!-- Node21 -->
<g id="Node000021" class="node">
<title>Node21</title>
<g id="a_Node000021"><a xlink:title=" ">
<polygon fill="white" stroke="#666666" points="430.5,-24.5 296.5,-24.5 296.5,-5.5 430.5,-5.5 430.5,-24.5"/>
<text text-anchor="middle" x="363.5" y="-12.5" font-family="Helvetica,sans-Serif" font-size="10.00">std::vector&lt; std::byte &gt;</text>
</a>
</g>
</g>
<!-- Node21&#45;&gt;Node20 -->
<g id="edge27_Node000020_Node000021" class="edge">
<title>Node21&#45;&gt;Node20</title>
<g id="a_edge27_Node000020_Node000021"><a xlink:title=" ">
<path fill="none" stroke="#9a32cd" stroke-dasharray="5,2" d="M440.96,-15C488.69,-15 549.77,-15 596.78,-15"/>
<polygon fill="#9a32cd" stroke="#9a32cd" points="440.68,-11.5 430.68,-15 440.68,-18.5 440.68,-11.5"/>
</a>
</g>
<text text-anchor="middle" x="517.5" y="-18" font-family="Helvetica,sans-Serif" font-size="10.00" fill="grey"> pixels</text>
</g>
</g>
</svg>
