<?xml version="1.0" encoding="UTF-8" standalone="no"?>
<!DOCTYPE svg PUBLIC "-//W3C//DTD SVG 1.1//EN"
 "http://www.w3.org/Graphics/SVG/1.1/DTD/svg11.dtd">
<!-- Generated by graphviz version 2.43.0 (0)
 -->
<!-- Title: edit_atlas::services::TimelineRenderedVideoExportReceipt Pages: 1 -->
<svg width="192pt" height="413pt"
 viewBox="0.00 0.00 192.00 413.00" xmlns="http://www.w3.org/2000/svg" xmlns:xlink="http://www.w3.org/1999/xlink">
<g id="graph0" class="graph" transform="scale(1 1) rotate(0) translate(4 409)">
<title>edit_atlas::services::TimelineRenderedVideoExportReceipt</title>
<!-- Node1 -->
<g id="Node000001" class="node">
<title>Node1</title>
<g id="a_Node000001"><a xlink:title="Successful document export and optional rendered&#45;video details.">
<polygon fill="#999999" stroke="#666666" points="177.5,-41 6.5,-41 6.5,0 177.5,0 177.5,-41"/>
<text text-anchor="start" x="14.5" y="-29" font-family="Helvetica,sans-Serif" font-size="10.00">edit_atlas::services</text>
<text text-anchor="start" x="14.5" y="-18" font-family="Helvetica,sans-Serif" font-size="10.00">::TimelineRenderedVideoExport</text>
<text text-anchor="middle" x="92" y="-7" font-family="Helvetica,sans-Serif" font-size="10.00">Receipt</text>
</a>
</g>
</g>
<!-- Node2 -->
<g id="Node000002" class="node">
<title>Node2</title>
<g id="a_Node000002"><a xlink:href="structedit__atlas_1_1services_1_1TimelineDocumentExportReceipt.html" target="_top" xlink:title="Contains the destination and diagnostics from a successful export.">
<polygon fill="white" stroke="#666666" points="184,-118 0,-118 0,-88 184,-88 184,-118"/>
<text text-anchor="start" x="8" y="-106" font-family="Helvetica,sans-Serif" font-size="10.00">edit_atlas::services</text>
<text text-anchor="middle" x="92" y="-95" font-family="Helvetica,sans-Serif" font-size="10.00">::TimelineDocumentExportReceipt</text>
</a>
</g>
</g>
<!-- Node2&#45;&gt;Node1 -->
<g id="edge1_Node000001_Node000002" class="edge">
<title>Node2&#45;&gt;Node1</title>
<g id="a_edge1_Node000001_Node000002"><a xlink:title=" ">
<path fill="none" stroke="#9a32cd" stroke-dasharray="5,2" d="M92,-77.94C92,-66.17 92,-52.19 92,-41.09"/>
<polygon fill="#9a32cd" stroke="#9a32cd" points="88.5,-77.98 92,-87.98 95.5,-77.98 88.5,-77.98"/>
</a>
</g>
<text text-anchor="middle" x="136.5" y="-62" font-family="Helvetica,sans-Serif" font-size="10.00" fill="grey"> document_export</text>
</g>
<!-- Node3 -->
<g id="Node000003" class="node">
<title>Node3</title>
<g id="a_Node000003"><a xlink:title=" ">
<polygon fill="white" stroke="#666666" points="156,-195 28,-195 28,-165 156,-165 156,-195"/>
<text text-anchor="start" x="36" y="-183" font-family="Helvetica,sans-Serif" font-size="10.00">std::vector&lt; edit_atlas</text>
<text text-anchor="middle" x="92" y="-172" font-family="Helvetica,sans-Serif" font-size="10.00">::core::Diagnostic &gt;</text>
</a>
</g>
</g>
<!-- Node3&#45;&gt;Node2 -->
<g id="edge2_Node000002_Node000003" class="edge">
<title>Node3&#45;&gt;Node2</title>
<g id="a_edge2_Node000002_Node000003"><a xlink:title=" ">
<path fill="none" stroke="#9a32cd" stroke-dasharray="5,2" d="M92,-154.54C92,-142.45 92,-128.29 92,-118.04"/>
<polygon fill="#9a32cd" stroke="#9a32cd" points="88.5,-154.89 92,-164.89 95.5,-154.89 88.5,-154.89"/>
</a>
</g>
<text text-anchor="middle" x="121.5" y="-139" font-family="Helvetica,sans-Serif" font-size="10.00" fill="grey"> diagnostics</text>
</g>
<!-- Node4 -->
<g id="Node000004" class="node">
<title>Node4</title>
<g id="a_Node000004"><a xlink:href="structedit__atlas_1_1core_1_1Diagnostic.html" target="_top" xlink:title="A machine&#45;identifiable diagnostic with a human&#45;readable explanation.">
<polygon fill="white" stroke="#666666" points="166.5,-261 17.5,-261 17.5,-242 166.5,-242 166.5,-261"/>
<text text-anchor="middle" x="92" y="-249" font-family="Helvetica,sans-Serif" font-size="10.00">edit_atlas::core::Diagnostic</text>
</a>
</g>
</g>
<!-- Node4&#45;&gt;Node3 -->
<g id="edge3_Node000003_Node000004" class="edge">
<title>Node4&#45;&gt;Node3</title>
<g id="a_edge3_Node000003_Node000004"><a xlink:title=" ">
<path fill="none" stroke="#9a32cd" stroke-dasharray="5,2" d="M92,-231.71C92,-220.19 92,-205.68 92,-195.14"/>
<polygon fill="#9a32cd" stroke="#9a32cd" points="88.5,-231.98 92,-241.98 95.5,-231.98 88.5,-231.98"/>
</a>
</g>
<text text-anchor="middle" x="116.5" y="-216" font-family="Helvetica,sans-Serif" font-size="10.00" fill="grey"> elements</text>
</g>
<!-- Node5 -->
<g id="Node000005" class="node">
<title>Node5</title>
<g id="a_Node000005"><a xlink:title=" ">
<polygon fill="white" stroke="#666666" points="124.5,-338 59.5,-338 59.5,-319 124.5,-319 124.5,-338"/>
<text text-anchor="middle" x="92" y="-326" font-family="Helvetica,sans-Serif" font-size="10.00">std::string</text>
</a>
</g>
</g>
<!-- Node5&#45;&gt;Node4 -->
<g id="edge4_Node000004_Node000005" class="edge">
<title>Node5&#45;&gt;Node4</title>
<g id="a_edge4_Node000004_Node000005"><a xlink:title=" ">
<path fill="none" stroke="#9a32cd" stroke-dasharray="5,2" d="M92,-308.52C92,-293.24 92,-272.48 92,-261"/>
<polygon fill="#9a32cd" stroke="#9a32cd" points="88.5,-308.9 92,-318.9 95.5,-308.9 88.5,-308.9"/>
</a>
</g>
<text text-anchor="middle" x="114.5" y="-293" font-family="Helvetica,sans-Serif" font-size="10.00" fill="grey"> code</text>
<text text-anchor="middle" x="114.5" y="-282" font-family="Helvetica,sans-Serif" font-size="10.00" fill="grey">message</text>
</g>
<!-- Node6 -->
<g id="Node000006" class="node">
<title>Node6</title>
<g id="a_Node000006"><a xlink:title=" ">
<polygon fill="white" stroke="#666666" points="144,-405 40,-405 40,-375 144,-375 144,-405"/>
<text text-anchor="start" x="48" y="-393" font-family="Helvetica,sans-Serif" font-size="10.00">std::basic_string&lt;</text>
<text text-anchor="middle" x="92" y="-382" font-family="Helvetica,sans-Serif" font-size="10.00"> Char &gt;</text>
</a>
</g>
</g>
<!-- Node6&#45;&gt;Node5 -->
<g id="edge5_Node000005_Node000006" class="edge">
<title>Node6&#45;&gt;Node5</title>
<g id="a_edge5_Node000005_Node000006"><a xlink:title=" ">
<path fill="none" stroke="#63b8ff" d="M92,-364.79C92,-355.36 92,-345.15 92,-338.16"/>
<polygon fill="#63b8ff" stroke="#63b8ff" points="88.5,-364.9 92,-374.9 95.5,-364.9 88.5,-364.9"/>
</a>
</g>
</g>
</g>
</svg>
