<?xml version="1.0" encoding="UTF-8" standalone="no"?>
<!DOCTYPE svg PUBLIC "-//W3C//DTD SVG 1.1//EN"
 "http://www.w3.org/Graphics/SVG/1.1/DTD/svg11.dtd">
<!-- Generated by graphviz version 2.43.0 (0)
 -->
<!-- Title: edit_atlas::services::TimelineTextFilterCondition Pages: 1 -->
<svg width="165pt" height="171pt"
 viewBox="0.00 0.00 165.00 171.00" xmlns="http://www.w3.org/2000/svg" xmlns:xlink="http://www.w3.org/1999/xlink">
<g id="graph0" class="graph" transform="scale(1 1) rotate(0) translate(4 167)">
<title>edit_atlas::services::TimelineTextFilterCondition</title>
<!-- Node1 -->
<g id="Node000001" class="node">
<title>Node1</title>
<g id="a_Node000001"><a xlink:title="A text&#45;search condition over a free&#45;text event field.">
<polygon fill="#999999" stroke="#666666" points="157,-30 0,-30 0,0 157,0 157,-30"/>
<text text-anchor="start" x="8" y="-18" font-family="Helvetica,sans-Serif" font-size="10.00">edit_atlas::services</text>
<text text-anchor="middle" x="78.5" y="-7" font-family="Helvetica,sans-Serif" font-size="10.00">::TimelineTextFilterCondition</text>
</a>
</g>
</g>
<!-- Node2 -->
<g id="Node000002" class="node">
<title>Node2</title>
<g id="a_Node000002"><a xlink:title=" ">
<polygon fill="white" stroke="#666666" points="111,-96 46,-96 46,-77 111,-77 111,-96"/>
<text text-anchor="middle" x="78.5" y="-84" font-family="Helvetica,sans-Serif" font-size="10.00">std::string</text>
</a>
</g>
</g>
<!-- Node2&#45;&gt;Node1 -->
<g id="edge1_Node000001_Node000002" class="edge">
<title>Node2&#45;&gt;Node1</title>
<g id="a_edge1_Node000001_Node000002"><a xlink:title=" ">
<path fill="none" stroke="#9a32cd" stroke-dasharray="5,2" d="M78.5,-66.71C78.5,-55.19 78.5,-40.68 78.5,-30.14"/>
<polygon fill="#9a32cd" stroke="#9a32cd" points="75,-66.98 78.5,-76.98 82,-66.98 75,-66.98"/>
</a>
</g>
<text text-anchor="middle" x="90" y="-51" font-family="Helvetica,sans-Serif" font-size="10.00" fill="grey"> text</text>
</g>
<!-- Node3 -->
<g id="Node000003" class="node">
<title>Node3</title>
<g id="a_Node000003"><a xlink:title=" ">
<polygon fill="white" stroke="#666666" points="130.5,-163 26.5,-163 26.5,-133 130.5,-133 130.5,-163"/>
<text text-anchor="start" x="34.5" y="-151" font-family="Helvetica,sans-Serif" font-size="10.00">std::basic_string&lt;</text>
<text text-anchor="middle" x="78.5" y="-140" font-family="Helvetica,sans-Serif" font-size="10.00"> Char &gt;</text>
</a>
</g>
</g>
<!-- Node3&#45;&gt;Node2 -->
<g id="edge2_Node000002_Node000003" class="edge">
<title>Node3&#45;&gt;Node2</title>
<g id="a_edge2_Node000002_Node000003"><a xlink:title=" ">
<path fill="none" stroke="#63b8ff" d="M78.5,-122.79C78.5,-113.36 78.5,-103.15 78.5,-96.16"/>
<polygon fill="#63b8ff" stroke="#63b8ff" points="75,-122.9 78.5,-132.9 82,-122.9 75,-122.9"/>
</a>
</g>
</g>
</g>
</svg>
