<?xml version="1.0" encoding="UTF-8" standalone="no"?>
<!DOCTYPE svg PUBLIC "-//W3C//DTD SVG 1.1//EN"
 "http://www.w3.org/Graphics/SVG/1.1/DTD/svg11.dtd">
<!-- Generated by graphviz version 2.43.0 (0)
 -->
<!-- Title: edit_atlas::core::ExportRequest Pages: 1 -->
<svg width="1756pt" height="355pt"
 viewBox="0.00 0.00 1756.00 355.00" xmlns="http://www.w3.org/2000/svg" xmlns:xlink="http://www.w3.org/1999/xlink">
<g id="graph0" class="graph" transform="scale(1 1) rotate(0) translate(4 351)">
<title>edit_atlas::core::ExportRequest</title>
<!-- Node1 -->
<g id="Node000001" class="node">
<title>Node1</title>
<g id="a_Node000001"><a xlink:title="A document and format&#45;specific options passed to an exporter.">
<polygon fill="#999999" stroke="#666666" points="1748,-31 1619,-31 1619,-1 1748,-1 1748,-31"/>
<text text-anchor="start" x="1627" y="-19" font-family="Helvetica,sans-Serif" font-size="10.00">edit_atlas::core::Export</text>
<text text-anchor="middle" x="1683.5" y="-8" font-family="Helvetica,sans-Serif" font-size="10.00">Request</text>
</a>
</g>
</g>
<!-- Node2 -->
<g id="Node000002" class="node">
<title>Node2</title>
<g id="a_Node000002"><a xlink:href="structedit__atlas_1_1core_1_1TimelineDocument.html" target="_top" xlink:title="A format&#45;independent editorial timeline and its import diagnostics.">
<polygon fill="white" stroke="#666666" points="1531,-167 1391,-167 1391,-137 1531,-137 1531,-167"/>
<text text-anchor="start" x="1399" y="-155" font-family="Helvetica,sans-Serif" font-size="10.00">edit_atlas::core::Timeline</text>
<text text-anchor="middle" x="1461" y="-144" font-family="Helvetica,sans-Serif" font-size="10.00">Document</text>
</a>
</g>
</g>
<!-- Node2&#45;&gt;Node1 -->
<g id="edge1_Node000001_Node000002" class="edge">
<title>Node2&#45;&gt;Node1</title>
<g id="a_edge1_Node000001_Node000002"><a xlink:title=" ">
<path fill="none" stroke="#9a32cd" stroke-dasharray="5,2" d="M1495.16,-131.55C1539.81,-104.01 1618.23,-55.64 1657.95,-31.14"/>
<polygon fill="#9a32cd" stroke="#9a32cd" points="1493.11,-128.7 1486.44,-136.93 1496.79,-134.66 1493.11,-128.7"/>
</a>
</g>
<text text-anchor="middle" x="1575" y="-100" font-family="Helvetica,sans-Serif" font-size="10.00" fill="grey"> document</text>
</g>
<!-- Node3 -->
<g id="Node000003" class="node">
<title>Node3</title>
<g id="a_Node000003"><a xlink:title=" ">
<polygon fill="white" stroke="#666666" points="206,-160.5 141,-160.5 141,-141.5 206,-141.5 206,-160.5"/>
<text text-anchor="middle" x="173.5" y="-148.5" font-family="Helvetica,sans-Serif" font-size="10.00">std::string</text>
</a>
</g>
</g>
<!-- Node3&#45;&gt;Node2 -->
<g id="edge2_Node000002_Node000003" class="edge">
<title>Node3&#45;&gt;Node2</title>
<g id="a_edge2_Node000002_Node000003"><a xlink:title=" ">
<path fill="none" stroke="#9a32cd" stroke-dasharray="5,2" d="M189.84,-168.12C219.72,-199.49 289.26,-263 362.5,-263 362.5,-263 362.5,-263 1222.5,-263 1311.93,-263 1404,-197.6 1441.97,-167.2"/>
<polygon fill="#9a32cd" stroke="#9a32cd" points="192.17,-165.49 182.8,-160.55 187.04,-170.26 192.17,-165.49"/>
</a>
</g>
<text text-anchor="middle" x="825" y="-266" font-family="Helvetica,sans-Serif" font-size="10.00" fill="grey"> title</text>
</g>
<!-- Node7 -->
<g id="Node000007" class="node">
<title>Node7</title>
<g id="a_Node000007"><a xlink:href="structedit__atlas_1_1core_1_1EditEvent.html" target="_top" xlink:title="A single editorial event with source and destination ranges.">
<polygon fill="white" stroke="#666666" points="1051,-138.5 907,-138.5 907,-119.5 1051,-119.5 1051,-138.5"/>
<text text-anchor="middle" x="979" y="-126.5" font-family="Helvetica,sans-Serif" font-size="10.00">edit_atlas::core::EditEvent</text>
</a>
</g>
</g>
<!-- Node3&#45;&gt;Node7 -->
<g id="edge7_Node000007_Node000003" class="edge">
<title>Node3&#45;&gt;Node7</title>
<g id="a_edge7_Node000007_Node000003"><a xlink:title=" ">
<path fill="none" stroke="#9a32cd" stroke-dasharray="5,2" d="M216.85,-149.84C347.25,-146.27 743.73,-135.41 906.8,-130.95"/>
<polygon fill="#9a32cd" stroke="#9a32cd" points="216.39,-146.35 206.49,-150.12 216.59,-153.35 216.39,-146.35"/>
</a>
</g>
<text text-anchor="middle" x="517.5" y="-157" font-family="Helvetica,sans-Serif" font-size="10.00" fill="grey"> identifier</text>
<text text-anchor="middle" x="517.5" y="-146" font-family="Helvetica,sans-Serif" font-size="10.00" fill="grey">reel</text>
</g>
<!-- Node8 -->
<g id="Node000008" class="node">
<title>Node8</title>
<g id="a_Node000008"><a xlink:href="structedit__atlas_1_1core_1_1Track.html" target="_top" xlink:title="A format&#45;independent track category and its source identifier.">
<polygon fill="white" stroke="#666666" points="579,-100.5 456,-100.5 456,-81.5 579,-81.5 579,-100.5"/>
<text text-anchor="middle" x="517.5" y="-88.5" font-family="Helvetica,sans-Serif" font-size="10.00">edit_atlas::core::Track</text>
</a>
</g>
</g>
<!-- Node3&#45;&gt;Node8 -->
<g id="edge9_Node000008_Node000003" class="edge">
<title>Node3&#45;&gt;Node8</title>
<g id="a_edge9_Node000008_Node000003"><a xlink:title=" ">
<path fill="none" stroke="#9a32cd" stroke-dasharray="5,2" d="M187.53,-133.42C196.48,-122.83 209.37,-110.22 224,-104 298.96,-72.13 394.69,-75.07 455.81,-81.72"/>
<polygon fill="#9a32cd" stroke="#9a32cd" points="184.72,-131.32 181.23,-141.32 190.2,-135.68 184.72,-131.32"/>
</a>
</g>
<text text-anchor="middle" x="247.5" y="-107" font-family="Helvetica,sans-Serif" font-size="10.00" fill="grey"> identifier</text>
</g>
<!-- Node11 -->
<g id="Node000011" class="node">
<title>Node11</title>
<g id="a_Node000011"><a xlink:href="structedit__atlas_1_1core_1_1Comment.html" target="_top" xlink:title="A human&#45;authored annotation associated with an edit event.">
<polygon fill="white" stroke="#666666" points="436.5,-180.5 290.5,-180.5 290.5,-161.5 436.5,-161.5 436.5,-180.5"/>
<text text-anchor="middle" x="363.5" y="-168.5" font-family="Helvetica,sans-Serif" font-size="10.00">edit_atlas::core::Comment</text>
</a>
</g>
</g>
<!-- Node3&#45;&gt;Node11 -->
<g id="edge13_Node000011_Node000003" class="edge">
<title>Node3&#45;&gt;Node11</title>
<g id="a_edge13_Node000011_Node000003"><a xlink:title=" ">
<path fill="none" stroke="#9a32cd" stroke-dasharray="5,2" d="M216.57,-155.48C238.24,-157.78 265.29,-160.66 290.18,-163.31"/>
<polygon fill="#9a32cd" stroke="#9a32cd" points="216.71,-151.97 206.39,-154.39 215.97,-158.93 216.71,-151.97"/>
</a>
</g>
<text text-anchor="middle" x="247.5" y="-164" font-family="Helvetica,sans-Serif" font-size="10.00" fill="grey"> text</text>
</g>
<!-- Node13 -->
<g id="Node000013" class="node">
<title>Node13</title>
<g id="a_Node000013"><a xlink:href="structedit__atlas_1_1core_1_1MetadataEntry.html" target="_top" xlink:title="A metadata property.">
<polygon fill="white" stroke="#666666" points="435.5,-61 291.5,-61 291.5,-31 435.5,-31 435.5,-61"/>
<text text-anchor="start" x="299.5" y="-49" font-family="Helvetica,sans-Serif" font-size="10.00">edit_atlas::core::Metadata</text>
<text text-anchor="middle" x="363.5" y="-38" font-family="Helvetica,sans-Serif" font-size="10.00">Entry</text>
</a>
</g>
</g>
<!-- Node3&#45;&gt;Node13 -->
<g id="edge16_Node000013_Node000003" class="edge">
<title>Node3&#45;&gt;Node13</title>
<g id="a_edge16_Node000013_Node000003"><a xlink:title=" ">
<path fill="none" stroke="#9a32cd" stroke-dasharray="5,2" d="M178.97,-131.47C185.11,-109.56 198.42,-74.91 224,-58 243.53,-45.09 268.14,-40.24 291.19,-39.2"/>
<polygon fill="#9a32cd" stroke="#9a32cd" points="175.54,-130.77 176.45,-141.33 182.32,-132.5 175.54,-130.77"/>
</a>
</g>
<text text-anchor="middle" x="247.5" y="-61" font-family="Helvetica,sans-Serif" font-size="10.00" fill="grey"> key</text>
</g>
<!-- Node15 -->
<g id="Node000015" class="node">
<title>Node15</title>
<g id="a_Node000015"><a xlink:href="structedit__atlas_1_1core_1_1Diagnostic.html" target="_top" xlink:title="A machine&#45;identifiable diagnostic with a human&#45;readable explanation.">
<polygon fill="white" stroke="#666666" points="438,-310.5 289,-310.5 289,-291.5 438,-291.5 438,-310.5"/>
<text text-anchor="middle" x="363.5" y="-298.5" font-family="Helvetica,sans-Serif" font-size="10.00">edit_atlas::core::Diagnostic</text>
</a>
</g>
</g>
<!-- Node3&#45;&gt;Node15 -->
<g id="edge20_Node000015_Node000003" class="edge">
<title>Node3&#45;&gt;Node15</title>
<g id="a_edge20_Node000015_Node000003"><a xlink:title=" ">
<path fill="none" stroke="#9a32cd" stroke-dasharray="5,2" d="M176.45,-170.8C180.32,-198.79 191.62,-249.49 224,-276 242.05,-290.78 265.91,-298.02 288.73,-301.27"/>
<polygon fill="#9a32cd" stroke="#9a32cd" points="179.9,-170.16 175.24,-160.64 172.95,-170.99 179.9,-170.16"/>
</a>
</g>
<text text-anchor="middle" x="247.5" y="-311" font-family="Helvetica,sans-Serif" font-size="10.00" fill="grey"> code</text>
<text text-anchor="middle" x="247.5" y="-300" font-family="Helvetica,sans-Serif" font-size="10.00" fill="grey">message</text>
</g>
<!-- Node4 -->
<g id="Node000004" class="node">
<title>Node4</title>
<g id="a_Node000004"><a xlink:title=" ">
<polygon fill="white" stroke="#666666" points="104,-166 0,-166 0,-136 104,-136 104,-166"/>
<text text-anchor="start" x="8" y="-154" font-family="Helvetica,sans-Serif" font-size="10.00">std::basic_string&lt;</text>
<text text-anchor="middle" x="52" y="-143" font-family="Helvetica,sans-Serif" font-size="10.00"> Char &gt;</text>
</a>
</g>
</g>
<!-- Node4&#45;&gt;Node3 -->
<g id="edge3_Node000003_Node000004" class="edge">
<title>Node4&#45;&gt;Node3</title>
<g id="a_edge3_Node000003_Node000004"><a xlink:title=" ">
<path fill="none" stroke="#63b8ff" d="M114.1,-151C123.41,-151 132.68,-151 141,-151"/>
<polygon fill="#63b8ff" stroke="#63b8ff" points="114.03,-147.5 104.03,-151 114.03,-154.5 114.03,-147.5"/>
</a>
</g>
</g>
<!-- Node5 -->
<g id="Node000005" class="node">
<title>Node5</title>
<g id="a_Node000005"><a xlink:href="classedit__atlas_1_1core_1_1FrameRate.html" target="_top" xlink:title="An exact, positive rational number of frames per second.">
<polygon fill="white" stroke="#666666" points="1297,-181.5 1146,-181.5 1146,-162.5 1297,-162.5 1297,-181.5"/>
<text text-anchor="middle" x="1221.5" y="-169.5" font-family="Helvetica,sans-Serif" font-size="10.00">edit_atlas::core::FrameRate</text>
</a>
</g>
</g>
<!-- Node5&#45;&gt;Node2 -->
<g id="edge4_Node000002_Node000005" class="edge">
<title>Node5&#45;&gt;Node2</title>
<g id="a_edge4_Node000002_Node000005"><a xlink:title=" ">
<path fill="none" stroke="#9a32cd" stroke-dasharray="5,2" d="M1307.64,-164.83C1334.93,-162.53 1364.8,-160.02 1390.8,-157.83"/>
<polygon fill="#9a32cd" stroke="#9a32cd" points="1306.99,-161.37 1297.32,-165.7 1307.58,-168.35 1306.99,-161.37"/>
</a>
</g>
<text text-anchor="middle" x="1344" y="-166" font-family="Helvetica,sans-Serif" font-size="10.00" fill="grey"> frame_rate</text>
</g>
<!-- Node6 -->
<g id="Node000006" class="node">
<title>Node6</title>
<g id="a_Node000006"><a xlink:title=" ">
<polygon fill="white" stroke="#666666" points="1285.5,-144 1157.5,-144 1157.5,-114 1285.5,-114 1285.5,-144"/>
<text text-anchor="start" x="1165.5" y="-132" font-family="Helvetica,sans-Serif" font-size="10.00">std::vector&lt; edit_atlas</text>
<text text-anchor="middle" x="1221.5" y="-121" font-family="Helvetica,sans-Serif" font-size="10.00">::core::EditEvent &gt;</text>
</a>
</g>
</g>
<!-- Node6&#45;&gt;Node2 -->
<g id="edge5_Node000002_Node000006" class="edge">
<title>Node6&#45;&gt;Node2</title>
<g id="a_edge5_Node000002_Node000006"><a xlink:title=" ">
<path fill="none" stroke="#9a32cd" stroke-dasharray="5,2" d="M1295.61,-136.08C1325.93,-139.02 1360.94,-142.41 1390.83,-145.3"/>
<polygon fill="#9a32cd" stroke="#9a32cd" points="1295.81,-132.58 1285.52,-135.1 1295.14,-139.55 1295.81,-132.58"/>
</a>
</g>
<text text-anchor="middle" x="1344" y="-146" font-family="Helvetica,sans-Serif" font-size="10.00" fill="grey"> events</text>
</g>
<!-- Node7&#45;&gt;Node6 -->
<g id="edge6_Node000006_Node000007" class="edge">
<title>Node7&#45;&gt;Node6</title>
<g id="a_edge6_Node000006_Node000007"><a xlink:title=" ">
<path fill="none" stroke="#9a32cd" stroke-dasharray="5,2" d="M1061.21,-129C1092.55,-129 1127.87,-129 1157.27,-129"/>
<polygon fill="#9a32cd" stroke="#9a32cd" points="1061.18,-125.5 1051.18,-129 1061.18,-132.5 1061.18,-125.5"/>
</a>
</g>
<text text-anchor="middle" x="1098.5" y="-132" font-family="Helvetica,sans-Serif" font-size="10.00" fill="grey"> elements</text>
</g>
<!-- Node8&#45;&gt;Node7 -->
<g id="edge8_Node000007_Node000008" class="edge">
<title>Node8&#45;&gt;Node7</title>
<g id="a_edge8_Node000007_Node000008"><a xlink:title=" ">
<path fill="none" stroke="#9a32cd" stroke-dasharray="5,2" d="M589.55,-93.45C664.27,-96.53 785.2,-102.95 889,-115 899.72,-116.24 911.13,-117.84 922.07,-119.5"/>
<polygon fill="#9a32cd" stroke="#9a32cd" points="589.45,-89.95 579.32,-93.04 589.17,-96.94 589.45,-89.95"/>
</a>
</g>
<text text-anchor="middle" x="670" y="-105" font-family="Helvetica,sans-Serif" font-size="10.00" fill="grey"> track</text>
</g>
<!-- Node9 -->
<g id="Node000009" class="node">
<title>Node9</title>
<g id="a_Node000009"><a xlink:href="classedit__atlas_1_1core_1_1TimecodeRange.html" target="_top" xlink:title="A validated half&#45;open timecode range of [start, end_exclusive).">
<polygon fill="white" stroke="#666666" points="743,-235 597,-235 597,-205 743,-205 743,-235"/>
<text text-anchor="start" x="605" y="-223" font-family="Helvetica,sans-Serif" font-size="10.00">edit_atlas::core::Timecode</text>
<text text-anchor="middle" x="670" y="-212" font-family="Helvetica,sans-Serif" font-size="10.00">Range</text>
</a>
</g>
</g>
<!-- Node9&#45;&gt;Node7 -->
<g id="edge10_Node000007_Node000009" class="edge">
<title>Node9&#45;&gt;Node7</title>
<g id="a_edge10_Node000007_Node000009"><a xlink:title=" ">
<path fill="none" stroke="#9a32cd" stroke-dasharray="5,2" d="M753.09,-208.52C794.57,-201.35 845.25,-190.49 889,-175 916.05,-165.42 945.21,-149.08 962.51,-138.67"/>
<polygon fill="#9a32cd" stroke="#9a32cd" points="752.31,-205.1 743.03,-210.21 753.47,-212 752.31,-205.1"/>
</a>
</g>
<text text-anchor="middle" x="825" y="-220" font-family="Helvetica,sans-Serif" font-size="10.00" fill="grey"> record_range</text>
<text text-anchor="middle" x="825" y="-209" font-family="Helvetica,sans-Serif" font-size="10.00" fill="grey">source_range</text>
</g>
<!-- Node10 -->
<g id="Node000010" class="node">
<title>Node10</title>
<g id="a_Node000010"><a xlink:title=" ">
<polygon fill="white" stroke="#666666" points="734,-187 606,-187 606,-157 734,-157 734,-187"/>
<text text-anchor="start" x="614" y="-175" font-family="Helvetica,sans-Serif" font-size="10.00">std::vector&lt; edit_atlas</text>
<text text-anchor="middle" x="670" y="-164" font-family="Helvetica,sans-Serif" font-size="10.00">::core::Comment &gt;</text>
</a>
</g>
</g>
<!-- Node10&#45;&gt;Node7 -->
<g id="edge11_Node000007_Node000010" class="edge">
<title>Node10&#45;&gt;Node7</title>
<g id="a_edge11_Node000007_Node000010"><a xlink:title=" ">
<path fill="none" stroke="#9a32cd" stroke-dasharray="5,2" d="M743.97,-162.73C786.34,-157.24 840.73,-150.01 889,-143 898.6,-141.61 908.77,-140.07 918.67,-138.53"/>
<polygon fill="#9a32cd" stroke="#9a32cd" points="743.49,-159.27 734.02,-164.02 744.38,-166.21 743.49,-159.27"/>
</a>
</g>
<text text-anchor="middle" x="825" y="-163" font-family="Helvetica,sans-Serif" font-size="10.00" fill="grey"> comments</text>
</g>
<!-- Node11&#45;&gt;Node10 -->
<g id="edge12_Node000010_Node000011" class="edge">
<title>Node11&#45;&gt;Node10</title>
<g id="a_edge12_Node000010_Node000011"><a xlink:title=" ">
<path fill="none" stroke="#9a32cd" stroke-dasharray="5,2" d="M446.81,-171.27C496.85,-171.43 559.77,-171.64 605.87,-171.79"/>
<polygon fill="#9a32cd" stroke="#9a32cd" points="446.67,-167.77 436.66,-171.24 446.65,-174.77 446.67,-167.77"/>
</a>
</g>
<text text-anchor="middle" x="517.5" y="-174" font-family="Helvetica,sans-Serif" font-size="10.00" fill="grey"> elements</text>
</g>
<!-- Node12 -->
<g id="Node000012" class="node">
<title>Node12</title>
<g id="a_Node000012"><a xlink:title=" ">
<polygon fill="white" stroke="#666666" points="736.5,-54 603.5,-54 603.5,-24 736.5,-24 736.5,-54"/>
<text text-anchor="start" x="611.5" y="-42" font-family="Helvetica,sans-Serif" font-size="10.00">std::vector&lt; edit_atlas</text>
<text text-anchor="middle" x="670" y="-31" font-family="Helvetica,sans-Serif" font-size="10.00">::core::MetadataEntry &gt;</text>
</a>
</g>
</g>
<!-- Node12&#45;&gt;Node1 -->
<g id="edge21_Node000001_Node000012" class="edge">
<title>Node12&#45;&gt;Node1</title>
<g id="a_edge21_Node000001_Node000012"><a xlink:title=" ">
<path fill="none" stroke="#9a32cd" stroke-dasharray="5,2" d="M746.64,-23.98C808.58,-13 898.61,0 978,0 978,0 978,0 1462,0 1514.97,0 1574.9,-4.65 1618.9,-8.94"/>
<polygon fill="#9a32cd" stroke="#9a32cd" points="745.79,-20.58 736.57,-25.8 747.03,-27.47 745.79,-20.58"/>
</a>
</g>
<text text-anchor="middle" x="1221.5" y="-3" font-family="Helvetica,sans-Serif" font-size="10.00" fill="grey"> options</text>
</g>
<!-- Node12&#45;&gt;Node2 -->
<g id="edge17_Node000002_Node000012" class="edge">
<title>Node12&#45;&gt;Node2</title>
<g id="a_edge17_Node000002_Node000012"><a xlink:title=" ">
<path fill="none" stroke="#9a32cd" stroke-dasharray="5,2" d="M746.59,-42.15C865,-48.17 1100.98,-64.5 1297,-105 1337.38,-113.34 1382.34,-126.62 1414.8,-136.93"/>
<polygon fill="#9a32cd" stroke="#9a32cd" points="746.7,-38.65 736.54,-41.65 746.35,-45.64 746.7,-38.65"/>
</a>
</g>
<text text-anchor="middle" x="1098.5" y="-80" font-family="Helvetica,sans-Serif" font-size="10.00" fill="grey"> metadata</text>
</g>
<!-- Node12&#45;&gt;Node7 -->
<g id="edge14_Node000007_Node000012" class="edge">
<title>Node12&#45;&gt;Node7</title>
<g id="a_edge14_Node000007_Node000012"><a xlink:title=" ">
<path fill="none" stroke="#9a32cd" stroke-dasharray="5,2" d="M746.9,-49.3C804.38,-57.36 875.67,-68.01 889,-73 919.09,-84.26 949.87,-106.51 966.17,-119.31"/>
<polygon fill="#9a32cd" stroke="#9a32cd" points="747.1,-45.79 736.71,-47.88 746.13,-52.73 747.1,-45.79"/>
</a>
</g>
<text text-anchor="middle" x="825" y="-76" font-family="Helvetica,sans-Serif" font-size="10.00" fill="grey"> metadata</text>
</g>
<!-- Node13&#45;&gt;Node12 -->
<g id="edge15_Node000012_Node000013" class="edge">
<title>Node13&#45;&gt;Node12</title>
<g id="a_edge15_Node000012_Node000013"><a xlink:title=" ">
<path fill="none" stroke="#9a32cd" stroke-dasharray="5,2" d="M445.51,-44.14C494.86,-43 557.09,-41.57 603.35,-40.51"/>
<polygon fill="#9a32cd" stroke="#9a32cd" points="445.42,-40.64 435.51,-44.37 445.59,-47.64 445.42,-40.64"/>
</a>
</g>
<text text-anchor="middle" x="517.5" y="-47" font-family="Helvetica,sans-Serif" font-size="10.00" fill="grey"> elements</text>
</g>
<!-- Node14 -->
<g id="Node000014" class="node">
<title>Node14</title>
<g id="a_Node000014"><a xlink:title=" ">
<polygon fill="white" stroke="#666666" points="889,-316 761,-316 761,-286 889,-286 889,-316"/>
<text text-anchor="start" x="769" y="-304" font-family="Helvetica,sans-Serif" font-size="10.00">std::vector&lt; edit_atlas</text>
<text text-anchor="middle" x="825" y="-293" font-family="Helvetica,sans-Serif" font-size="10.00">::core::Diagnostic &gt;</text>
</a>
</g>
</g>
<!-- Node14&#45;&gt;Node2 -->
<g id="edge18_Node000002_Node000014" class="edge">
<title>Node14&#45;&gt;Node2</title>
<g id="a_edge18_Node000002_Node000014"><a xlink:title=" ">
<path fill="none" stroke="#9a32cd" stroke-dasharray="5,2" d="M899.47,-317.2C1009.89,-337.48 1221.8,-360.25 1373,-277 1417.24,-252.64 1443.89,-195.05 1454.58,-167.37"/>
<polygon fill="#9a32cd" stroke="#9a32cd" points="899.9,-313.72 889.43,-315.31 898.61,-320.6 899.9,-313.72"/>
</a>
</g>
<text text-anchor="middle" x="1098.5" y="-339" font-family="Helvetica,sans-Serif" font-size="10.00" fill="grey"> diagnostics</text>
</g>
<!-- Node15&#45;&gt;Node14 -->
<g id="edge19_Node000014_Node000015" class="edge">
<title>Node15&#45;&gt;Node14</title>
<g id="a_edge19_Node000014_Node000015"><a xlink:title=" ">
<path fill="none" stroke="#9a32cd" stroke-dasharray="5,2" d="M448.26,-301C538.43,-301 679.81,-301 761,-301"/>
<polygon fill="#9a32cd" stroke="#9a32cd" points="448.07,-297.5 438.07,-301 448.07,-304.5 448.07,-297.5"/>
</a>
</g>
<text text-anchor="middle" x="517.5" y="-304" font-family="Helvetica,sans-Serif" font-size="10.00" fill="grey"> elements</text>
</g>
</g>
</svg>
