<?xml version="1.0" encoding="UTF-8" standalone="no"?>
<!DOCTYPE svg PUBLIC "-//W3C//DTD SVG 1.1//EN"
 "http://www.w3.org/Graphics/SVG/1.1/DTD/svg11.dtd">
<!-- Generated by graphviz version 2.43.0 (0)
 -->
<!-- Title: edit_atlas::services::DocumentImportReceipt Pages: 1 -->
<svg width="1780pt" height="323pt"
 viewBox="0.00 0.00 1780.00 323.44" xmlns="http://www.w3.org/2000/svg" xmlns:xlink="http://www.w3.org/1999/xlink">
<g id="graph0" class="graph" transform="scale(1 1) rotate(0) translate(4 319.44)">
<title>edit_atlas::services::DocumentImportReceipt</title>
<!-- Node1 -->
<g id="Node000001" class="node">
<title>Node1</title>
<g id="a_Node000001"><a xlink:title="Contains a successfully imported document and its source context.">
<polygon fill="#999999" stroke="#666666" points="1772,-52.44 1630,-52.44 1630,-22.44 1772,-22.44 1772,-52.44"/>
<text text-anchor="start" x="1638" y="-40.44" font-family="Helvetica,sans-Serif" font-size="10.00">edit_atlas::services</text>
<text text-anchor="middle" x="1701" y="-29.44" font-family="Helvetica,sans-Serif" font-size="10.00">::DocumentImportReceipt</text>
</a>
</g>
</g>
<!-- Node2 -->
<g id="Node000002" class="node">
<title>Node2</title>
<g id="a_Node000002"><a xlink:href="structedit__atlas_1_1core_1_1TimelineDocument.html" target="_top" xlink:title="A format&#45;independent editorial timeline and its import diagnostics.">
<polygon fill="white" stroke="#666666" points="1542,-114.44 1402,-114.44 1402,-84.44 1542,-84.44 1542,-114.44"/>
<text text-anchor="start" x="1410" y="-102.44" font-family="Helvetica,sans-Serif" font-size="10.00">edit_atlas::core::Timeline</text>
<text text-anchor="middle" x="1472" y="-91.44" font-family="Helvetica,sans-Serif" font-size="10.00">Document</text>
</a>
</g>
</g>
<!-- Node2&#45;&gt;Node1 -->
<g id="edge1_Node000001_Node000002" class="edge">
<title>Node2&#45;&gt;Node1</title>
<g id="a_edge1_Node000001_Node000002"><a xlink:title=" ">
<path fill="none" stroke="#9a32cd" stroke-dasharray="5,2" d="M1537.74,-81.76C1571.54,-72.53 1612.47,-61.35 1644.77,-52.53"/>
<polygon fill="#9a32cd" stroke="#9a32cd" points="1536.67,-78.42 1527.95,-84.43 1538.52,-85.18 1536.67,-78.42"/>
</a>
</g>
<text text-anchor="middle" x="1586" y="-77.44" font-family="Helvetica,sans-Serif" font-size="10.00" fill="grey"> document</text>
</g>
<!-- Node3 -->
<g id="Node000003" class="node">
<title>Node3</title>
<g id="a_Node000003"><a xlink:title=" ">
<polygon fill="white" stroke="#666666" points="206,-216.94 141,-216.94 141,-197.94 206,-197.94 206,-216.94"/>
<text text-anchor="middle" x="173.5" y="-204.94" font-family="Helvetica,sans-Serif" font-size="10.00">std::string</text>
</a>
</g>
</g>
<!-- Node3&#45;&gt;Node2 -->
<g id="edge2_Node000002_Node000003" class="edge">
<title>Node3&#45;&gt;Node2</title>
<g id="a_edge2_Node000002_Node000003"><a xlink:title=" ">
<path fill="none" stroke="#9a32cd" stroke-dasharray="5,2" d="M191.91,-223.85C223.17,-251.52 291.99,-304.44 361,-304.44 361,-304.44 361,-304.44 1232.5,-304.44 1349.07,-304.44 1437.09,-161.86 1463.1,-114.52"/>
<polygon fill="#9a32cd" stroke="#9a32cd" points="194.22,-221.22 184.46,-217.1 189.52,-226.41 194.22,-221.22"/>
</a>
</g>
<text text-anchor="middle" x="832.5" y="-307.44" font-family="Helvetica,sans-Serif" font-size="10.00" fill="grey"> title</text>
</g>
<!-- Node7 -->
<g id="Node000007" class="node">
<title>Node7</title>
<g id="a_Node000007"><a xlink:href="structedit__atlas_1_1core_1_1EditEvent.html" target="_top" xlink:title="A single editorial event with source and destination ranges.">
<polygon fill="white" stroke="#666666" points="1069,-173.94 925,-173.94 925,-154.94 1069,-154.94 1069,-173.94"/>
<text text-anchor="middle" x="997" y="-161.94" font-family="Helvetica,sans-Serif" font-size="10.00">edit_atlas::core::EditEvent</text>
</a>
</g>
</g>
<!-- Node3&#45;&gt;Node7 -->
<g id="edge7_Node000007_Node000003" class="edge">
<title>Node3&#45;&gt;Node7</title>
<g id="a_edge7_Node000007_Node000003"><a xlink:title=" ">
<path fill="none" stroke="#9a32cd" stroke-dasharray="5,2" d="M207.37,-220.17C212.85,-221.88 218.53,-223.4 224,-224.44 449.28,-267.63 510.82,-245.03 740,-235.44 814.42,-232.33 836.46,-245.34 907,-221.44 938.11,-210.91 969.23,-187.24 985.13,-173.95"/>
<polygon fill="#9a32cd" stroke="#9a32cd" points="208.39,-216.82 197.8,-216.96 206.17,-223.46 208.39,-216.82"/>
</a>
</g>
<text text-anchor="middle" x="514.5" y="-263.44" font-family="Helvetica,sans-Serif" font-size="10.00" fill="grey"> identifier</text>
<text text-anchor="middle" x="514.5" y="-252.44" font-family="Helvetica,sans-Serif" font-size="10.00" fill="grey">reel</text>
</g>
<!-- Node8 -->
<g id="Node000008" class="node">
<title>Node8</title>
<g id="a_Node000008"><a xlink:href="structedit__atlas_1_1core_1_1Track.html" target="_top" xlink:title="A format&#45;independent track category and its source identifier.">
<polygon fill="white" stroke="#666666" points="576,-225.94 453,-225.94 453,-206.94 576,-206.94 576,-225.94"/>
<text text-anchor="middle" x="514.5" y="-213.94" font-family="Helvetica,sans-Serif" font-size="10.00">edit_atlas::core::Track</text>
</a>
</g>
</g>
<!-- Node3&#45;&gt;Node8 -->
<g id="edge9_Node000008_Node000003" class="edge">
<title>Node3&#45;&gt;Node8</title>
<g id="a_edge9_Node000008_Node000003"><a xlink:title=" ">
<path fill="none" stroke="#9a32cd" stroke-dasharray="5,2" d="M216.22,-208.55C275.55,-210.13 384.68,-213.02 452.93,-214.84"/>
<polygon fill="#9a32cd" stroke="#9a32cd" points="216.18,-205.05 206.09,-208.28 215.99,-212.05 216.18,-205.05"/>
</a>
</g>
<text text-anchor="middle" x="247.5" y="-212.44" font-family="Helvetica,sans-Serif" font-size="10.00" fill="grey"> identifier</text>
</g>
<!-- Node11 -->
<g id="Node000011" class="node">
<title>Node11</title>
<g id="a_Node000011"><a xlink:href="structedit__atlas_1_1core_1_1Comment.html" target="_top" xlink:title="A human&#45;authored annotation associated with an edit event.">
<polygon fill="white" stroke="#666666" points="435,-167.94 289,-167.94 289,-148.94 435,-148.94 435,-167.94"/>
<text text-anchor="middle" x="362" y="-155.94" font-family="Helvetica,sans-Serif" font-size="10.00">edit_atlas::core::Comment</text>
</a>
</g>
</g>
<!-- Node3&#45;&gt;Node11 -->
<g id="edge13_Node000011_Node000003" class="edge">
<title>Node3&#45;&gt;Node11</title>
<g id="a_edge13_Node000011_Node000003"><a xlink:title=" ">
<path fill="none" stroke="#9a32cd" stroke-dasharray="5,2" d="M195.65,-192.02C204.08,-186.58 214.13,-180.95 224,-177.44 244.48,-170.17 267.6,-165.66 288.93,-162.88"/>
<polygon fill="#9a32cd" stroke="#9a32cd" points="193.52,-189.23 187.21,-197.74 197.45,-195.02 193.52,-189.23"/>
</a>
</g>
<text text-anchor="middle" x="247.5" y="-180.44" font-family="Helvetica,sans-Serif" font-size="10.00" fill="grey"> text</text>
</g>
<!-- Node13 -->
<g id="Node000013" class="node">
<title>Node13</title>
<g id="a_Node000013"><a xlink:href="structedit__atlas_1_1core_1_1MetadataEntry.html" target="_top" xlink:title="A metadata property.">
<polygon fill="white" stroke="#666666" points="434,-108.44 290,-108.44 290,-78.44 434,-78.44 434,-108.44"/>
<text text-anchor="start" x="298" y="-96.44" font-family="Helvetica,sans-Serif" font-size="10.00">edit_atlas::core::Metadata</text>
<text text-anchor="middle" x="362" y="-85.44" font-family="Helvetica,sans-Serif" font-size="10.00">Entry</text>
</a>
</g>
</g>
<!-- Node3&#45;&gt;Node13 -->
<g id="edge16_Node000013_Node000003" class="edge">
<title>Node3&#45;&gt;Node13</title>
<g id="a_edge16_Node000013_Node000003"><a xlink:title=" ">
<path fill="none" stroke="#9a32cd" stroke-dasharray="5,2" d="M186.61,-189.56C195.71,-177.22 209.12,-161.18 224,-150.44 249.8,-131.83 282.59,-117.91 309.62,-108.49"/>
<polygon fill="#9a32cd" stroke="#9a32cd" points="183.73,-187.57 180.79,-197.75 189.43,-191.63 183.73,-187.57"/>
</a>
</g>
<text text-anchor="middle" x="247.5" y="-153.44" font-family="Helvetica,sans-Serif" font-size="10.00" fill="grey"> key</text>
</g>
<!-- Node15 -->
<g id="Node000015" class="node">
<title>Node15</title>
<g id="a_Node000015"><a xlink:href="structedit__atlas_1_1core_1_1Diagnostic.html" target="_top" xlink:title="A machine&#45;identifiable diagnostic with a human&#45;readable explanation.">
<polygon fill="white" stroke="#666666" points="907,-46.94 758,-46.94 758,-27.94 907,-27.94 907,-46.94"/>
<text text-anchor="middle" x="832.5" y="-34.94" font-family="Helvetica,sans-Serif" font-size="10.00">edit_atlas::core::Diagnostic</text>
</a>
</g>
</g>
<!-- Node3&#45;&gt;Node15 -->
<g id="edge20_Node000015_Node000003" class="edge">
<title>Node3&#45;&gt;Node15</title>
<g id="a_edge20_Node000015_Node000003"><a xlink:title=" ">
<path fill="none" stroke="#9a32cd" stroke-dasharray="5,2" d="M181,-188.08C194.41,-151.8 229.02,-74.77 289,-47.44 461.74,31.24 698.65,-7.75 791.69,-27.91"/>
<polygon fill="#9a32cd" stroke="#9a32cd" points="177.69,-186.95 177.64,-197.55 184.28,-189.29 177.69,-186.95"/>
</a>
</g>
<text text-anchor="middle" x="362" y="-61.44" font-family="Helvetica,sans-Serif" font-size="10.00" fill="grey"> code</text>
<text text-anchor="middle" x="362" y="-50.44" font-family="Helvetica,sans-Serif" font-size="10.00" fill="grey">message</text>
</g>
<!-- Node4 -->
<g id="Node000004" class="node">
<title>Node4</title>
<g id="a_Node000004"><a xlink:title=" ">
<polygon fill="white" stroke="#666666" points="104,-222.44 0,-222.44 0,-192.44 104,-192.44 104,-222.44"/>
<text text-anchor="start" x="8" y="-210.44" font-family="Helvetica,sans-Serif" font-size="10.00">std::basic_string&lt;</text>
<text text-anchor="middle" x="52" y="-199.44" font-family="Helvetica,sans-Serif" font-size="10.00"> Char &gt;</text>
</a>
</g>
</g>
<!-- Node4&#45;&gt;Node3 -->
<g id="edge3_Node000003_Node000004" class="edge">
<title>Node4&#45;&gt;Node3</title>
<g id="a_edge3_Node000003_Node000004"><a xlink:title=" ">
<path fill="none" stroke="#63b8ff" d="M114.1,-207.44C123.41,-207.44 132.68,-207.44 141,-207.44"/>
<polygon fill="#63b8ff" stroke="#63b8ff" points="114.03,-203.94 104.03,-207.44 114.03,-210.94 114.03,-203.94"/>
</a>
</g>
</g>
<!-- Node5 -->
<g id="Node000005" class="node">
<title>Node5</title>
<g id="a_Node000005"><a xlink:href="classedit__atlas_1_1core_1_1FrameRate.html" target="_top" xlink:title="An exact, positive rational number of frames per second.">
<polygon fill="white" stroke="#666666" points="1307,-175.94 1156,-175.94 1156,-156.94 1307,-156.94 1307,-175.94"/>
<text text-anchor="middle" x="1231.5" y="-163.94" font-family="Helvetica,sans-Serif" font-size="10.00">edit_atlas::core::FrameRate</text>
</a>
</g>
</g>
<!-- Node5&#45;&gt;Node2 -->
<g id="edge4_Node000002_Node000005" class="edge">
<title>Node5&#45;&gt;Node2</title>
<g id="a_edge4_Node000002_Node000005"><a xlink:title=" ">
<path fill="none" stroke="#9a32cd" stroke-dasharray="5,2" d="M1284.25,-154.49C1313.65,-147.45 1351.05,-138.05 1384,-128.44 1398.37,-124.25 1413.91,-119.23 1427.84,-114.55"/>
<polygon fill="#9a32cd" stroke="#9a32cd" points="1283.12,-151.16 1274.2,-156.88 1284.74,-157.97 1283.12,-151.16"/>
</a>
</g>
<text text-anchor="middle" x="1354.5" y="-146.44" font-family="Helvetica,sans-Serif" font-size="10.00" fill="grey"> frame_rate</text>
</g>
<!-- Node6 -->
<g id="Node000006" class="node">
<title>Node6</title>
<g id="a_Node000006"><a xlink:title=" ">
<polygon fill="white" stroke="#666666" points="1295.5,-138.44 1167.5,-138.44 1167.5,-108.44 1295.5,-108.44 1295.5,-138.44"/>
<text text-anchor="start" x="1175.5" y="-126.44" font-family="Helvetica,sans-Serif" font-size="10.00">std::vector&lt; edit_atlas</text>
<text text-anchor="middle" x="1231.5" y="-115.44" font-family="Helvetica,sans-Serif" font-size="10.00">::core::EditEvent &gt;</text>
</a>
</g>
</g>
<!-- Node6&#45;&gt;Node2 -->
<g id="edge5_Node000002_Node000006" class="edge">
<title>Node6&#45;&gt;Node2</title>
<g id="a_edge5_Node000002_Node000006"><a xlink:title=" ">
<path fill="none" stroke="#9a32cd" stroke-dasharray="5,2" d="M1305.96,-116.05C1336.55,-112.97 1371.87,-109.42 1401.96,-106.39"/>
<polygon fill="#9a32cd" stroke="#9a32cd" points="1305.39,-112.59 1295.79,-117.07 1306.09,-119.56 1305.39,-112.59"/>
</a>
</g>
<text text-anchor="middle" x="1354.5" y="-116.44" font-family="Helvetica,sans-Serif" font-size="10.00" fill="grey"> events</text>
</g>
<!-- Node7&#45;&gt;Node6 -->
<g id="edge6_Node000006_Node000007" class="edge">
<title>Node7&#45;&gt;Node6</title>
<g id="a_edge6_Node000006_Node000007"><a xlink:title=" ">
<path fill="none" stroke="#9a32cd" stroke-dasharray="5,2" d="M1061.88,-153.18C1094.73,-147.38 1134.65,-140.35 1167.39,-134.57"/>
<polygon fill="#9a32cd" stroke="#9a32cd" points="1061.16,-149.75 1051.92,-154.93 1062.38,-156.64 1061.16,-149.75"/>
</a>
</g>
<text text-anchor="middle" x="1112.5" y="-150.44" font-family="Helvetica,sans-Serif" font-size="10.00" fill="grey"> elements</text>
</g>
<!-- Node8&#45;&gt;Node7 -->
<g id="edge8_Node000007_Node000008" class="edge">
<title>Node8&#45;&gt;Node7</title>
<g id="a_edge8_Node000007_Node000008"><a xlink:title=" ">
<path fill="none" stroke="#9a32cd" stroke-dasharray="5,2" d="M586.61,-219.9C665.71,-222.21 796.88,-221.39 907,-198.44 931.77,-193.28 958.73,-182.14 976.4,-174.02"/>
<polygon fill="#9a32cd" stroke="#9a32cd" points="586.38,-216.4 576.27,-219.58 586.16,-223.39 586.38,-216.4"/>
</a>
</g>
<text text-anchor="middle" x="667" y="-223.44" font-family="Helvetica,sans-Serif" font-size="10.00" fill="grey"> track</text>
</g>
<!-- Node9 -->
<g id="Node000009" class="node">
<title>Node9</title>
<g id="a_Node000009"><a xlink:href="classedit__atlas_1_1core_1_1TimecodeRange.html" target="_top" xlink:title="A validated half&#45;open timecode range of [start, end_exclusive).">
<polygon fill="white" stroke="#666666" points="740,-191.44 594,-191.44 594,-161.44 740,-161.44 740,-191.44"/>
<text text-anchor="start" x="602" y="-179.44" font-family="Helvetica,sans-Serif" font-size="10.00">edit_atlas::core::Timecode</text>
<text text-anchor="middle" x="667" y="-168.44" font-family="Helvetica,sans-Serif" font-size="10.00">Range</text>
</a>
</g>
</g>
<!-- Node9&#45;&gt;Node7 -->
<g id="edge10_Node000007_Node000009" class="edge">
<title>Node9&#45;&gt;Node7</title>
<g id="a_edge10_Node000007_Node000009"><a xlink:title=" ">
<path fill="none" stroke="#9a32cd" stroke-dasharray="5,2" d="M750.57,-173.42C804.3,-171.46 873.66,-168.92 924.93,-167.04"/>
<polygon fill="#9a32cd" stroke="#9a32cd" points="750.25,-169.93 740.39,-173.8 750.51,-176.93 750.25,-169.93"/>
</a>
</g>
<text text-anchor="middle" x="832.5" y="-186.44" font-family="Helvetica,sans-Serif" font-size="10.00" fill="grey"> record_range</text>
<text text-anchor="middle" x="832.5" y="-175.44" font-family="Helvetica,sans-Serif" font-size="10.00" fill="grey">source_range</text>
</g>
<!-- Node10 -->
<g id="Node000010" class="node">
<title>Node10</title>
<g id="a_Node000010"><a xlink:title=" ">
<polygon fill="white" stroke="#666666" points="731,-143.44 603,-143.44 603,-113.44 731,-113.44 731,-143.44"/>
<text text-anchor="start" x="611" y="-131.44" font-family="Helvetica,sans-Serif" font-size="10.00">std::vector&lt; edit_atlas</text>
<text text-anchor="middle" x="667" y="-120.44" font-family="Helvetica,sans-Serif" font-size="10.00">::core::Comment &gt;</text>
</a>
</g>
</g>
<!-- Node10&#45;&gt;Node7 -->
<g id="edge11_Node000007_Node000010" class="edge">
<title>Node10&#45;&gt;Node7</title>
<g id="a_edge11_Node000007_Node000010"><a xlink:title=" ">
<path fill="none" stroke="#9a32cd" stroke-dasharray="5,2" d="M741.37,-135.16C788.69,-139.65 851.53,-145.92 907,-152.44 913.5,-153.21 920.27,-154.04 927.03,-154.91"/>
<polygon fill="#9a32cd" stroke="#9a32cd" points="741.5,-131.66 731.22,-134.2 740.84,-138.63 741.5,-131.66"/>
</a>
</g>
<text text-anchor="middle" x="832.5" y="-155.44" font-family="Helvetica,sans-Serif" font-size="10.00" fill="grey"> comments</text>
</g>
<!-- Node11&#45;&gt;Node10 -->
<g id="edge12_Node000010_Node000011" class="edge">
<title>Node11&#45;&gt;Node10</title>
<g id="a_edge12_Node000010_Node000011"><a xlink:title=" ">
<path fill="none" stroke="#9a32cd" stroke-dasharray="5,2" d="M445.26,-150.3C494.87,-145.39 557.11,-139.23 602.84,-134.7"/>
<polygon fill="#9a32cd" stroke="#9a32cd" points="444.8,-146.83 435.19,-151.3 445.49,-153.79 444.8,-146.83"/>
</a>
</g>
<text text-anchor="middle" x="514.5" y="-151.44" font-family="Helvetica,sans-Serif" font-size="10.00" fill="grey"> elements</text>
</g>
<!-- Node12 -->
<g id="Node000012" class="node">
<title>Node12</title>
<g id="a_Node000012"><a xlink:title=" ">
<polygon fill="white" stroke="#666666" points="733.5,-95.44 600.5,-95.44 600.5,-65.44 733.5,-65.44 733.5,-95.44"/>
<text text-anchor="start" x="608.5" y="-83.44" font-family="Helvetica,sans-Serif" font-size="10.00">std::vector&lt; edit_atlas</text>
<text text-anchor="middle" x="667" y="-72.44" font-family="Helvetica,sans-Serif" font-size="10.00">::core::MetadataEntry &gt;</text>
</a>
</g>
</g>
<!-- Node12&#45;&gt;Node2 -->
<g id="edge17_Node000002_Node000012" class="edge">
<title>Node12&#45;&gt;Node2</title>
<g id="a_edge17_Node000002_Node000012"><a xlink:title=" ">
<path fill="none" stroke="#9a32cd" stroke-dasharray="5,2" d="M744.12,-82.24C899.75,-85.93 1252.25,-94.27 1401.82,-97.81"/>
<polygon fill="#9a32cd" stroke="#9a32cd" points="743.79,-78.74 733.71,-82 743.63,-85.73 743.79,-78.74"/>
</a>
</g>
<text text-anchor="middle" x="1112.5" y="-94.44" font-family="Helvetica,sans-Serif" font-size="10.00" fill="grey"> metadata</text>
</g>
<!-- Node12&#45;&gt;Node7 -->
<g id="edge14_Node000007_Node000012" class="edge">
<title>Node12&#45;&gt;Node7</title>
<g id="a_edge14_Node000007_Node000012"><a xlink:title=" ">
<path fill="none" stroke="#9a32cd" stroke-dasharray="5,2" d="M743.67,-91.07C801.91,-99.69 877.3,-111.93 907,-121.44 933.64,-129.98 962.44,-145.08 979.84,-154.92"/>
<polygon fill="#9a32cd" stroke="#9a32cd" points="744.15,-87.61 733.75,-89.61 743.13,-94.53 744.15,-87.61"/>
</a>
</g>
<text text-anchor="middle" x="832.5" y="-124.44" font-family="Helvetica,sans-Serif" font-size="10.00" fill="grey"> metadata</text>
</g>
<!-- Node13&#45;&gt;Node12 -->
<g id="edge15_Node000012_Node000013" class="edge">
<title>Node13&#45;&gt;Node12</title>
<g id="a_edge15_Node000012_Node000013"><a xlink:title=" ">
<path fill="none" stroke="#9a32cd" stroke-dasharray="5,2" d="M444.27,-89.96C493.14,-87.86 554.54,-85.23 600.32,-83.26"/>
<polygon fill="#9a32cd" stroke="#9a32cd" points="443.88,-86.47 434.04,-90.4 444.18,-93.46 443.88,-86.47"/>
</a>
</g>
<text text-anchor="middle" x="514.5" y="-91.44" font-family="Helvetica,sans-Serif" font-size="10.00" fill="grey"> elements</text>
</g>
<!-- Node14 -->
<g id="Node000014" class="node">
<title>Node14</title>
<g id="a_Node000014"><a xlink:title=" ">
<polygon fill="white" stroke="#666666" points="1295.5,-52.44 1167.5,-52.44 1167.5,-22.44 1295.5,-22.44 1295.5,-52.44"/>
<text text-anchor="start" x="1175.5" y="-40.44" font-family="Helvetica,sans-Serif" font-size="10.00">std::vector&lt; edit_atlas</text>
<text text-anchor="middle" x="1231.5" y="-29.44" font-family="Helvetica,sans-Serif" font-size="10.00">::core::Diagnostic &gt;</text>
</a>
</g>
</g>
<!-- Node14&#45;&gt;Node1 -->
<g id="edge21_Node000001_Node000014" class="edge">
<title>Node14&#45;&gt;Node1</title>
<g id="a_edge21_Node000001_Node000014"><a xlink:title=" ">
<path fill="none" stroke="#9a32cd" stroke-dasharray="5,2" d="M1305.8,-37.44C1394.49,-37.44 1542.75,-37.44 1629.96,-37.44"/>
<polygon fill="#9a32cd" stroke="#9a32cd" points="1305.55,-33.94 1295.55,-37.44 1305.55,-40.94 1305.55,-33.94"/>
</a>
</g>
<text text-anchor="middle" x="1472" y="-40.44" font-family="Helvetica,sans-Serif" font-size="10.00" fill="grey"> diagnostics</text>
</g>
<!-- Node14&#45;&gt;Node2 -->
<g id="edge18_Node000002_Node000014" class="edge">
<title>Node14&#45;&gt;Node2</title>
<g id="a_edge18_Node000002_Node000014"><a xlink:title=" ">
<path fill="none" stroke="#9a32cd" stroke-dasharray="5,2" d="M1306,-40.98C1331.13,-43.54 1359.15,-47.94 1384,-55.44 1406.36,-62.2 1429.89,-74.45 1446.84,-84.32"/>
<polygon fill="#9a32cd" stroke="#9a32cd" points="1306.08,-37.47 1295.79,-40.01 1305.42,-44.44 1306.08,-37.47"/>
</a>
</g>
<text text-anchor="middle" x="1354.5" y="-58.44" font-family="Helvetica,sans-Serif" font-size="10.00" fill="grey"> diagnostics</text>
</g>
<!-- Node15&#45;&gt;Node14 -->
<g id="edge19_Node000014_Node000015" class="edge">
<title>Node15&#45;&gt;Node14</title>
<g id="a_edge19_Node000014_Node000015"><a xlink:title=" ">
<path fill="none" stroke="#9a32cd" stroke-dasharray="5,2" d="M917.55,-37.44C992.23,-37.44 1099.72,-37.44 1167.29,-37.44"/>
<polygon fill="#9a32cd" stroke="#9a32cd" points="917.24,-33.94 907.24,-37.44 917.24,-40.94 917.24,-33.94"/>
</a>
</g>
<text text-anchor="middle" x="997" y="-40.44" font-family="Helvetica,sans-Serif" font-size="10.00" fill="grey"> elements</text>
</g>
</g>
</svg>
